<?xml version="1.0" encoding="utf-8"?>
<!-- Generator: Adobe Illustrator 19.0.0, SVG Export Plug-In . SVG Version: 6.00 Build 0)  -->
<svg version="1.1" id="Layer_1" xmlns="http://www.w3.org/2000/svg" xmlns:xlink="http://www.w3.org/1999/xlink" x="0px" y="0px"
	 viewBox="0 0 105 105" style="enable-background:new 0 0 105 105;" xml:space="preserve">
<g id="XMLID_1_">
	<radialGradient id="XMLID_318_" cx="-196.927" cy="52.9685" r="50" gradientUnits="userSpaceOnUse">
		<stop  offset="0" style="stop-color:#3E6170"/>
		<stop  offset="1" style="stop-color:#426788"/>
	</radialGradient>
	
		<circle id="XMLID_7_" style="fill:url(#XMLID_318_);stroke:#FFFFFF;stroke-width:2.1646;stroke-miterlimit:10;" cx="-196.9" cy="53" r="50"/>
	<path id="XMLID_6_" style="fill:#FFFFFF;stroke:#426788;stroke-width:2.3428;stroke-miterlimit:10;" d="M-162.7,42.5
		c0-9.8-12.1-17.8-27-17.8c-14.9,0-27,8-27,17.8s12.1,17.8,27,17.8c2.6,0,5.1-0.2,7.5-0.7l-0.3,0.7c0,0,7.2,9.6,14.9,11.4
		c-2.8-4.3-4.6-11.8-4.9-15.5C-166.6,53-162.7,48-162.7,42.5z"/>
	<path id="XMLID_5_" style="fill:#FFFFFF;stroke:#426788;stroke-width:1.7862;stroke-miterlimit:10;" d="M-234.3,55.1
		c0.1-8.2,10.7-14.7,23.6-14.6c12.9,0.1,23.4,6.9,23.3,15.1s-10.7,14.7-23.6,14.6c-2.2,0-4.4-0.2-6.5-0.6l0,0.1
		c0,0-6.1,8.5-12.8,9.9c2.5-3.5,4.1-9.8,4.4-12.9C-231,63.9-234.3,59.7-234.3,55.1z"/>
	<radialGradient id="XMLID_319_" cx="-196.927" cy="52.9685" r="50" gradientUnits="userSpaceOnUse">
		<stop  offset="0" style="stop-color:#3E6170"/>
		<stop  offset="1" style="stop-color:#426788"/>
	</radialGradient>
	
		<circle id="XMLID_4_" style="fill:url(#XMLID_319_);stroke:#FFFFFF;stroke-width:2.1646;stroke-miterlimit:10;" cx="-196.9" cy="53" r="50"/>
	<path id="XMLID_3_" style="fill:#FFFFFF;stroke:#426788;stroke-width:2.3428;stroke-miterlimit:10;" d="M-162.7,42.5
		c0-9.8-12.1-17.8-27-17.8c-14.9,0-27,8-27,17.8s12.1,17.8,27,17.8c2.6,0,5.1-0.2,7.5-0.7l-0.3,0.7c0,0,7.2,9.6,14.9,11.4
		c-2.8-4.3-4.6-11.8-4.9-15.5C-166.6,53-162.7,48-162.7,42.5z"/>
	<path id="XMLID_2_" style="fill:#FFFFFF;stroke:#426788;stroke-width:1.7862;stroke-miterlimit:10;" d="M-234.3,55.1
		c0.1-8.2,10.7-14.7,23.6-14.6c12.9,0.1,23.4,6.9,23.3,15.1s-10.7,14.7-23.6,14.6c-2.2,0-4.4-0.2-6.5-0.6l0,0.1
		c0,0-6.1,8.5-12.8,9.9c2.5-3.5,4.1-9.8,4.4-12.9C-231,63.9-234.3,59.7-234.3,55.1z"/>
</g>
<g id="XMLID_268_">
	<radialGradient id="XMLID_320_" cx="53.073" cy="52.9685" r="50" gradientUnits="userSpaceOnUse">
		<stop  offset="0" style="stop-color:#3E6170"/>
		<stop  offset="1" style="stop-color:#426788"/>
	</radialGradient>
	
		<circle id="XMLID_274_" style="fill:url(#XMLID_320_);stroke:#FFFFFF;stroke-width:2.1646;stroke-miterlimit:10;" cx="53.1" cy="53" r="50"/>
</g>
<g id="XMLID_74_">
	<radialGradient id="XMLID_321_" cx="-71.927" cy="52.9685" r="50" gradientUnits="userSpaceOnUse">
		<stop  offset="0" style="stop-color:#3E6170"/>
		<stop  offset="1" style="stop-color:#426788"/>
	</radialGradient>
	
		<circle id="XMLID_80_" style="fill:url(#XMLID_321_);stroke:#FFFFFF;stroke-width:2.1646;stroke-miterlimit:10;" cx="-71.9" cy="53" r="50"/>
	<path id="XMLID_79_" style="fill:#FFFFFF;stroke:#426788;stroke-width:2.3428;stroke-miterlimit:10;" d="M-37.7,42.5
		c0-9.8-12.1-17.8-27-17.8s-27,8-27,17.8s12.1,17.8,27,17.8c2.6,0,5.1-0.2,7.5-0.7l-0.3,0.7c0,0,7.2,9.6,14.9,11.4
		c-2.8-4.3-4.6-11.8-4.9-15.5C-41.6,53-37.7,48-37.7,42.5z"/>
	<path id="XMLID_78_" style="fill:#FFFFFF;stroke:#426788;stroke-width:1.7862;stroke-miterlimit:10;" d="M-109.3,55.1
		c0.1-8.2,10.7-14.7,23.6-14.6c12.9,0.1,23.4,6.9,23.3,15.1S-73.1,70.3-86,70.2c-2.2,0-4.4-0.2-6.5-0.6l0,0.1c0,0-6.1,8.5-12.8,9.9
		c2.5-3.5,4.1-9.8,4.4-12.9C-106,63.9-109.3,59.7-109.3,55.1z"/>
	<radialGradient id="XMLID_322_" cx="-71.927" cy="52.9685" r="50" gradientUnits="userSpaceOnUse">
		<stop  offset="0" style="stop-color:#3E6170"/>
		<stop  offset="1" style="stop-color:#426788"/>
	</radialGradient>
	
		<circle id="XMLID_77_" style="fill:url(#XMLID_322_);stroke:#FFFFFF;stroke-width:2.1646;stroke-miterlimit:10;" cx="-71.9" cy="53" r="50"/>
</g>
<g id="XMLID_76_">
	<path id="XMLID_98_" style="fill:none;stroke:#FFFFFF;stroke-width:3.4372;stroke-miterlimit:10;" d="M-63.2,38.7h-19.6
		c-1.2,0-2.1-1-2.1-2.1V26.3c0-2.4,1.9-4.3,4.3-4.3h19.6c1.2,0,2.1,1,2.1,2.1v10.3C-59,36.8-60.9,38.7-63.2,38.7z"/>
	<path id="XMLID_97_" style="fill:#FFFFFF;" d="M-64.6,72.6h-16.5c-1,0-1.8-0.8-1.8-1.8v-8.7c0-2,1.6-3.6,3.6-3.6h16.5
		c1,0,1.8,0.8,1.8,1.8V69C-61,71-62.6,72.6-64.6,72.6z"/>
	<path id="XMLID_96_" style="fill:#FFFFFF;" d="M-34.9,72.6h-16.5c-1,0-1.8-0.8-1.8-1.8v-8.7c0-2,1.6-3.6,3.6-3.6h16.5
		c1,0,1.8,0.8,1.8,1.8V69C-31.3,71-32.9,72.6-34.9,72.6z"/>
	<path id="XMLID_95_" style="fill:#FFFFFF;" d="M-94.3,72.6h-16.5c-1,0-1.8-0.8-1.8-1.8v-8.7c0-2,1.6-3.6,3.6-3.6h16.5
		c1,0,1.8,0.8,1.8,1.8V69C-90.7,71-92.3,72.6-94.3,72.6z"/>
	<path id="XMLID_94_" style="fill:none;stroke:#FFFFFF;stroke-width:2.1482;stroke-miterlimit:10;" d="M-102.8,55.8v-7.6
		c0-1.2,1-2.1,2.1-2.1H-48c1.2,0,2.1,1,2.1,2.1v7.6"/>
	
		<line id="XMLID_93_" style="fill:#3E6170;stroke:#FFFFFF;stroke-width:2.1482;stroke-miterlimit:10;" x1="-71.9" y1="42.2" x2="-71.9" y2="56.8"/>
</g>
<g id="XMLID_288_">
	<path id="XMLID_273_" style="fill:#FFFFFF;" d="M52.1,56.9c0.1-0.9,0.4-1.7,0.4-2.6c0-3.3,0.1-6.5,0-9.8c0-1.8,0.4-3.6,2.3-3.6
		c1.4,0,3.1,1,3.9,2.1c0.8,1.1,0.9,2.9,1,4.3c0.1,3.6,0,7.2,0,10.9c0.3,0.1,0.7,0.1,1,0.2c0.3-0.7,0.8-1.3,0.8-2
		c0.1-2.8,0.2-5.5,0-8.3c-0.2-2.6,1-3.9,3.4-4.1c2.4-0.2,3.6,1.5,3.8,3.6c0.3,2.6,0.2,5.3,0.2,7.9c0,1.3,0,2.5,0,3.8
		c0.3,0.1,0.6,0.2,1,0.2c0.3-0.6,0.8-1.1,0.8-1.7c0.1-2.2,0.2-4.5,0-6.7c-0.2-2.3,1.2-3.4,3-3.4c1.2,0,2.7,0.9,3.5,1.9
		c0.7,0.8,0.7,2.3,0.7,3.5c0.1,7.2-0.2,14.5,0.3,21.7c0.5,6.7-4.8,15.7-13,18.1c-7.8,2.2-16.6-0.8-20.2-8.6
		c-3.6-7.7-10.2-11.6-16.3-16.3c-1.7-1.3-4.6-1.8-3-4.9c1.2-2.5,5.9-3.8,8.4-2.3c2.6,1.7,5.1,3.6,8,5.7c0-3.6,0-6.9,0-10.1
		c0-8.8-0.1-17.6-0.1-26.3c0-3.6,1.9-5.2,5.4-4.7c2.6,0.4,3.3,1.9,3.3,4.3c-0.1,8.1,0,16.1,0,24.2c0,1,0.2,2,0.3,2.9
		C51.4,56.9,51.8,56.9,52.1,56.9z"/>
	<g id="XMLID_289_">
		<path id="XMLID_272_" style="fill:none;stroke:#FFFFFF;stroke-width:1.9657;stroke-miterlimit:10;" d="M52.1,31.5
			c1.2-1.4,1.9-3.2,1.9-5.1c0-4.3-3.5-7.8-7.8-7.8c-4.3,0-7.8,3.5-7.8,7.8c0,2,0.7,3.8,1.9,5.1"/>
		<path id="XMLID_271_" style="fill:none;stroke:#FFFFFF;stroke-width:1.6074;stroke-miterlimit:10;" d="M41.4,25.8"/>
		<path id="XMLID_270_" style="fill:none;stroke:#FFFFFF;stroke-width:0.7371;stroke-miterlimit:10;" d="M52.1,40.2
			c5.3-2.3,9.1-7.6,9.1-13.7c0-8.3-6.7-14.9-14.9-14.9c-8.3,0-14.9,6.7-14.9,14.9c0,6.2,3.7,11.5,9.1,13.7"/>
		<path id="XMLID_269_" style="fill:none;stroke:#FFFFFF;stroke-width:1.2286;stroke-miterlimit:10;" d="M40.4,36.5
			c-3.5-2-5.8-5.8-5.8-10.1c0-6.5,5.2-11.7,11.7-11.7S57.9,20,57.9,26.4c0,4.3-2.3,8.1-5.8,10.1"/>
	</g>
</g>
<g id="XMLID_302_">
</g>
<g id="XMLID_303_">
</g>
<g id="XMLID_304_">
</g>
<g id="XMLID_305_">
</g>
<g id="XMLID_306_">
</g>
<g id="XMLID_307_">
</g>
<g id="XMLID_308_">
</g>
<g id="XMLID_309_">
</g>
<g id="XMLID_310_">
</g>
<g id="XMLID_311_">
</g>
<g id="XMLID_312_">
</g>
<g id="XMLID_313_">
</g>
<g id="XMLID_314_">
</g>
<g id="XMLID_315_">
</g>
<g id="XMLID_316_">
</g>
</svg>
