<?xml version="1.0" encoding="utf-8"?>
<!-- Generator: Adobe Illustrator 19.0.0, SVG Export Plug-In . SVG Version: 6.00 Build 0)  -->
<svg version="1.1" id="Layer_1" xmlns="http://www.w3.org/2000/svg" xmlns:xlink="http://www.w3.org/1999/xlink" x="0px" y="0px"
	 viewBox="-427 228 105 105" style="enable-background:new -427 228 105 105;" xml:space="preserve">
<style type="text/css">
	.st0{fill:url(#XMLID_2_);stroke:#FFFFFF;stroke-width:2.1646;stroke-miterlimit:10;}
	.st1{fill:#FFFFFF;}
</style>
<g id="XMLID_557_">
	
		<radialGradient id="XMLID_2_" cx="-373.9" cy="281" r="50" gradientTransform="matrix(1 0 0 -1 0 562)" gradientUnits="userSpaceOnUse">
		<stop  offset="0" style="stop-color:#3E6170"/>
		<stop  offset="1" style="stop-color:#426788"/>
	</radialGradient>
	<circle id="XMLID_558_" class="st0" cx="-373.9" cy="281" r="50"/>
</g>
<path id="portfolio" class="st1" d="M-339.7,259.2c0-0.8-0.7-1.6-1.5-1.7l-20-2.3v-9.3c0,0-4-2.3-9.1-2.8c-5.4-0.6-9.1,0.6-9.1,0.6
	v3.6c-4.9-0.4-8.2,0.7-8.2,0.7v4.2l-11.1-1.3c-0.8-0.1-1.5,0.5-1.5,1.3v2l12.6,1.5v1.8l-19.2-2.3c-0.8-0.1-1.5,0.5-1.5,1.3v40.3
	c0,2.3,1.6,5.1,5,5.5l53.8,6.3c0.1,0,0.2,0,0.3,0l0,0c0,0,7,0.9,9.2-6.5l0,0c0.1-0.4,0.2-0.8,0.2-1.4L-339.7,259.2L-339.7,259.2z
	 M-370.2,245.7c3.7,0.4,6.3,2,6.3,2v7.1l-5.4-0.6v-4.1c0,0-3.1-1.8-7.2-2.5v-1.3C-376.5,246.2-373.9,245.3-370.2,245.7z
	 M-376.5,250.3c2.7,0.6,4.4,1.7,4.4,1.7v1.9l-4.4-0.5V250.3z M-384.7,250.4c0,0,2.2-0.7,5.4-0.5v3.1l-5.4-0.6V250.4z M-384.7,255.9
	l12.6,1.5v1.8l-12.6-1.5C-384.7,257.7-384.7,255.9-384.7,255.9z M-346.7,303.6c-0.6,0.2-1.1-0.1-1.1-0.1l0,0v-40
	c0-0.8-0.7-1.6-1.5-1.7l-20-2.4v-1.8l22.3,2.6c0.8,0.1,1.5,0.8,1.5,1.7v40.7C-345.6,302.7-345.8,303.3-346.7,303.6z"/>
<g id="XMLID_699_">
</g>
<g id="XMLID_700_">
</g>
<g id="XMLID_701_">
</g>
<g id="XMLID_702_">
</g>
<g id="XMLID_703_">
</g>
<g id="XMLID_704_">
</g>
<g id="XMLID_705_">
</g>
<g id="XMLID_706_">
</g>
<g id="XMLID_707_">
</g>
<g id="XMLID_708_">
</g>
<g id="XMLID_709_">
</g>
<g id="XMLID_710_">
</g>
<g id="XMLID_711_">
</g>
<g id="XMLID_712_">
</g>
<g id="XMLID_713_">
</g>
</svg>
