<?xml version="1.0" encoding="utf-8"?>
<!-- Generator: Adobe Illustrator 19.0.0, SVG Export Plug-In . SVG Version: 6.00 Build 0)  -->
<svg version="1.1" id="Layer_1" xmlns="http://www.w3.org/2000/svg" xmlns:xlink="http://www.w3.org/1999/xlink" x="0px" y="0px"
	 viewBox="-427 228 105 105" style="enable-background:new -427 228 105 105;" xml:space="preserve">
<style type="text/css">
	.st0{fill:url(#XMLID_2_);stroke:#FFFFFF;stroke-width:2.1646;stroke-miterlimit:10;}
	.st1{fill:#FFFFFF;}
</style>
<g id="XMLID_323_">
	
		<radialGradient id="XMLID_2_" cx="-373.9" cy="281" r="50" gradientTransform="matrix(1 0 0 -1 0 562)" gradientUnits="userSpaceOnUse">
		<stop  offset="0" style="stop-color:#3E6170"/>
		<stop  offset="1" style="stop-color:#426788"/>
	</radialGradient>
	<circle id="XMLID_324_" class="st0" cx="-373.9" cy="281" r="50"/>
</g>
<path id="XMLID_318_" class="st1" d="M-376.6,291.5c-2.9-2.9-5.7-5.7-8.5-8.5c-0.4-0.4-0.2-0.7,0.1-1c4.8-4.8,9.6-9.6,14.4-14.4
	c5.8-5.7,11.6-11.3,17.4-17c0.8-0.8,1.7-1.5,2.5-2.3c0.9-0.8,2.5-1,3.7-0.4c1.2,0.6,1.9,2,1.7,3.3c-0.1,0.4-0.3,0.7-0.5,1.1
	c-2.4,3.3-4.8,6.7-7.4,9.9c-4.9,6.3-10,12.6-15,18.9c-2.5,3.2-5.1,6.3-7.7,9.5C-376.1,291-376.3,291.2-376.6,291.5z"/>
<path id="XMLID_320_" class="st1" d="M-379.4,293.1c-0.7-0.6-1.2-1.2-1.8-1.8c-2-2-4.1-4.1-6.1-6.1c-0.3-0.3-0.5-0.5-1-0.2
	c-1.5,0.9-3.1,1.7-4.5,2.7c-4.2,3-6.6,7.2-7.4,12.2c-0.3,2.1-0.5,4.2-0.2,6.3c0.3,2.3,0.7,4.5,1.4,6.7c0.1,0.4,0.3,0.7,0.4,1
	c0.1,0,0.1-0.1,0.2-0.1c0.1-1,0.2-2,0.4-2.9c0.6-2.4,1.8-4.3,4.1-5.3c1.4-0.6,2.9-0.6,4.3-0.7c2-0.1,3.8-0.8,5.4-2
	c2.7-2.1,4.1-5.1,5.1-8.3C-378.8,294.2-378.8,293.6-379.4,293.1z M-389.8,292.2c0,0.4,0,0.8,0,1.2c0,0.3-0.1,0.7-0.3,1
	c-1,1.7-2,3.2-3.2,4.2c-0.7,0.5-1.3,0.7-1.8,0.6c-0.4-0.1-0.7-0.2-1.2,0c-0.8,0.3-1.5,1.3-2.2,2.6c-0.3,0.5-0.5,1.1-0.8,1.6
	c0,0,0,0-0.1,0c0-0.2,0.1-0.4,0.1-0.6c0.4-1.3,0.8-2.6,1.3-3.9c0.5-1.2,1-2.4,1.6-3.6c1.4-2.8,3-4.9,4.7-6.2
	c0.6-0.4,1.1-0.7,1.7-1.1c0.2-0.1,0.2,0,0.2,0.2C-389.8,289.5-389.8,290.9-389.8,292.2z"/>
<g id="XMLID_319_">
</g>
<g id="XMLID_321_">
</g>
<g id="XMLID_322_">
</g>
<g id="XMLID_337_">
</g>
<g id="XMLID_338_">
</g>
<g id="XMLID_339_">
</g>
<g id="XMLID_340_">
</g>
<g id="XMLID_341_">
</g>
<g id="XMLID_342_">
</g>
<g id="XMLID_343_">
</g>
<g id="XMLID_344_">
</g>
<g id="XMLID_345_">
</g>
<g id="XMLID_346_">
</g>
<g id="XMLID_347_">
</g>
<g id="XMLID_348_">
</g>
</svg>
