<?xml version="1.0" encoding="utf-8"?>
<!-- Generator: Adobe Illustrator 19.0.0, SVG Export Plug-In . SVG Version: 6.00 Build 0)  -->
<svg version="1.1" id="Layer_1" xmlns="http://www.w3.org/2000/svg" xmlns:xlink="http://www.w3.org/1999/xlink" x="0px" y="0px"
	 viewBox="-427 228 105 105" style="enable-background:new -427 228 105 105;" xml:space="preserve">
<style type="text/css">
	.st0{fill:url(#XMLID_2_);stroke:#FFFFFF;stroke-width:2.1646;stroke-miterlimit:10;}
	.st1{fill:#FFFFFF;}
</style>
<g id="XMLID_365_">
	
		<radialGradient id="XMLID_2_" cx="-373.9" cy="281" r="50" gradientTransform="matrix(1 0 0 -1 0 562)" gradientUnits="userSpaceOnUse">
		<stop  offset="0" style="stop-color:#3E6170"/>
		<stop  offset="1" style="stop-color:#426788"/>
	</radialGradient>
	<circle id="XMLID_366_" class="st0" cx="-373.9" cy="281" r="50"/>
</g>
<g id="XMLID_393_">
	<path id="XMLID_364_" class="st1" d="M-381.4,277c4.6,3.9,9.6,4.9,14.9,1.2c0.4-0.3,0.9-0.7,1.4-0.8c3.5-0.5,18.1,8.5,19,12.1
		c1.4,5.6,2.6,11.4,3.2,17.2c0.2,1.6-1.8,4.5-3.4,5c-17.8,6.4-35.8,6.2-53.7,0.3c-3.1-1-4-2.8-3.6-5.7c0.5-3.3,1-6.5,1.4-9.8
		c1-7.9,4.3-13.7,12.9-15.6C-386.8,280.4-384.5,278.5-381.4,277z"/>
	<path id="XMLID_394_" class="st1" d="M-372.2,238.8c-5.9-1.3-13.2,2.5-14,8.2c-1.2,8.2-1.3,16.6,3.4,24.2c5.3,8.5,14,8.9,19.1,0.2
		c2.8-4.8,5.1-16.3,4.6-16.4C-358.4,244.3-360.9,241.2-372.2,238.8z M-371.8,268.8c-0.5,0.5-1.1,0.7-1.9,0.7c-0.8,0-1.5-0.2-1.9-0.7
		c-0.5-0.5-0.7-1.1-0.7-1.8s0.3-1.3,0.8-1.8s1.1-0.7,1.9-0.7c0.8,0,1.4,0.2,1.9,0.7s0.8,1.1,0.8,1.8
		C-371.1,267.7-371.4,268.3-371.8,268.8z M-366.7,254.1c-0.4,0.8-1.2,1.8-2.2,2.8l-1.3,1.3c-0.8,0.8-1.3,1.7-1.4,2.8l-0.1,1h-4.3
		c0-1.5,0.2-2.8,0.6-3.7c0.4-0.9,1.1-1.8,2.1-2.7c1-0.9,1.7-1.6,2-2.2c0.3-0.6,0.5-1.1,0.5-1.8c0-1.9-0.9-2.8-2.6-2.8
		c-0.8,0-1.5,0.3-2,0.8s-0.7,1.2-0.8,2.1h-4.8c0-2.1,0.7-3.8,2-4.9c1.3-1.2,3.2-1.8,5.5-1.8s4.1,0.6,5.4,1.7
		c1.3,1.1,1.9,2.7,1.9,4.8C-366.1,252.4-366.3,253.2-366.7,254.1z"/>
</g>
<g id="XMLID_392_">
</g>
<g id="XMLID_395_">
</g>
<g id="XMLID_396_">
</g>
<g id="XMLID_397_">
</g>
<g id="XMLID_398_">
</g>
<g id="XMLID_399_">
</g>
<g id="XMLID_400_">
</g>
<g id="XMLID_401_">
</g>
<g id="XMLID_402_">
</g>
<g id="XMLID_403_">
</g>
<g id="XMLID_404_">
</g>
<g id="XMLID_405_">
</g>
<g id="XMLID_406_">
</g>
<g id="XMLID_407_">
</g>
<g id="XMLID_408_">
</g>
</svg>
