<?xml version="1.0" encoding="utf-8"?>
<!-- Generator: Adobe Illustrator 19.0.0, SVG Export Plug-In . SVG Version: 6.00 Build 0)  -->
<svg version="1.1" id="Layer_1" xmlns="http://www.w3.org/2000/svg" xmlns:xlink="http://www.w3.org/1999/xlink" x="0px" y="0px"
	 viewBox="0 0 105 105" style="enable-background:new 0 0 105 105;" xml:space="preserve">
<g id="XMLID_1_">
	<radialGradient id="XMLID_350_" cx="-321.927" cy="52.9685" r="50" gradientUnits="userSpaceOnUse">
		<stop  offset="0" style="stop-color:#3E6170"/>
		<stop  offset="1" style="stop-color:#426788"/>
	</radialGradient>
	
		<circle id="XMLID_7_" style="fill:url(#XMLID_350_);stroke:#FFFFFF;stroke-width:2.1646;stroke-miterlimit:10;" cx="-321.9" cy="53" r="50"/>
	<path id="XMLID_6_" style="fill:#FFFFFF;stroke:#426788;stroke-width:2.3428;stroke-miterlimit:10;" d="M-287.7,42.5
		c0-9.8-12.1-17.8-27-17.8s-27,8-27,17.8s12.1,17.8,27,17.8c2.6,0,5.1-0.2,7.5-0.7l-0.3,0.7c0,0,7.2,9.6,14.9,11.4
		c-2.8-4.3-4.6-11.8-4.9-15.5C-291.6,53-287.7,48-287.7,42.5z"/>
	<path id="XMLID_5_" style="fill:#FFFFFF;stroke:#426788;stroke-width:1.7862;stroke-miterlimit:10;" d="M-359.3,55.1
		c0.1-8.2,10.7-14.7,23.6-14.6c12.9,0.1,23.4,6.9,23.3,15.1c-0.1,8.2-10.7,14.7-23.6,14.6c-2.2,0-4.4-0.2-6.5-0.6l0,0.1
		c0,0-6.1,8.5-12.8,9.9c2.5-3.5,4.1-9.8,4.4-12.9C-356,63.9-359.3,59.7-359.3,55.1z"/>
	<radialGradient id="XMLID_351_" cx="-321.927" cy="52.9685" r="50" gradientUnits="userSpaceOnUse">
		<stop  offset="0" style="stop-color:#3E6170"/>
		<stop  offset="1" style="stop-color:#426788"/>
	</radialGradient>
	
		<circle id="XMLID_4_" style="fill:url(#XMLID_351_);stroke:#FFFFFF;stroke-width:2.1646;stroke-miterlimit:10;" cx="-321.9" cy="53" r="50"/>
	<path id="XMLID_3_" style="fill:#FFFFFF;stroke:#426788;stroke-width:2.3428;stroke-miterlimit:10;" d="M-287.7,42.5
		c0-9.8-12.1-17.8-27-17.8s-27,8-27,17.8s12.1,17.8,27,17.8c2.6,0,5.1-0.2,7.5-0.7l-0.3,0.7c0,0,7.2,9.6,14.9,11.4
		c-2.8-4.3-4.6-11.8-4.9-15.5C-291.6,53-287.7,48-287.7,42.5z"/>
	<path id="XMLID_2_" style="fill:#FFFFFF;stroke:#426788;stroke-width:1.7862;stroke-miterlimit:10;" d="M-359.3,55.1
		c0.1-8.2,10.7-14.7,23.6-14.6c12.9,0.1,23.4,6.9,23.3,15.1c-0.1,8.2-10.7,14.7-23.6,14.6c-2.2,0-4.4-0.2-6.5-0.6l0,0.1
		c0,0-6.1,8.5-12.8,9.9c2.5-3.5,4.1-9.8,4.4-12.9C-356,63.9-359.3,59.7-359.3,55.1z"/>
</g>
<g id="XMLID_268_">
	<radialGradient id="XMLID_352_" cx="-71.927" cy="52.9685" r="50" gradientUnits="userSpaceOnUse">
		<stop  offset="0" style="stop-color:#3E6170"/>
		<stop  offset="1" style="stop-color:#426788"/>
	</radialGradient>
	
		<circle id="XMLID_274_" style="fill:url(#XMLID_352_);stroke:#FFFFFF;stroke-width:2.1646;stroke-miterlimit:10;" cx="-71.9" cy="53" r="50"/>
</g>
<g id="XMLID_74_">
	<radialGradient id="XMLID_353_" cx="-196.927" cy="52.9685" r="50" gradientUnits="userSpaceOnUse">
		<stop  offset="0" style="stop-color:#3E6170"/>
		<stop  offset="1" style="stop-color:#426788"/>
	</radialGradient>
	
		<circle id="XMLID_80_" style="fill:url(#XMLID_353_);stroke:#FFFFFF;stroke-width:2.1646;stroke-miterlimit:10;" cx="-196.9" cy="53" r="50"/>
	<path id="XMLID_79_" style="fill:#FFFFFF;stroke:#426788;stroke-width:2.3428;stroke-miterlimit:10;" d="M-162.7,42.5
		c0-9.8-12.1-17.8-27-17.8c-14.9,0-27,8-27,17.8s12.1,17.8,27,17.8c2.6,0,5.1-0.2,7.5-0.7l-0.3,0.7c0,0,7.2,9.6,14.9,11.4
		c-2.8-4.3-4.6-11.8-4.9-15.5C-166.6,53-162.7,48-162.7,42.5z"/>
	<path id="XMLID_78_" style="fill:#FFFFFF;stroke:#426788;stroke-width:1.7862;stroke-miterlimit:10;" d="M-234.3,55.1
		c0.1-8.2,10.7-14.7,23.6-14.6c12.9,0.1,23.4,6.9,23.3,15.1s-10.7,14.7-23.6,14.6c-2.2,0-4.4-0.2-6.5-0.6l0,0.1
		c0,0-6.1,8.5-12.8,9.9c2.5-3.5,4.1-9.8,4.4-12.9C-231,63.9-234.3,59.7-234.3,55.1z"/>
	<radialGradient id="XMLID_354_" cx="-196.927" cy="52.9685" r="50" gradientUnits="userSpaceOnUse">
		<stop  offset="0" style="stop-color:#3E6170"/>
		<stop  offset="1" style="stop-color:#426788"/>
	</radialGradient>
	
		<circle id="XMLID_77_" style="fill:url(#XMLID_354_);stroke:#FFFFFF;stroke-width:2.1646;stroke-miterlimit:10;" cx="-196.9" cy="53" r="50"/>
</g>
<g id="XMLID_76_">
	<path id="XMLID_98_" style="fill:none;stroke:#FFFFFF;stroke-width:3.4372;stroke-miterlimit:10;" d="M-188.2,38.7h-19.6
		c-1.2,0-2.1-1-2.1-2.1V26.3c0-2.4,1.9-4.3,4.3-4.3h19.6c1.2,0,2.1,1,2.1,2.1v10.3C-184,36.8-185.9,38.7-188.2,38.7z"/>
	<path id="XMLID_97_" style="fill:#FFFFFF;" d="M-189.6,72.6h-16.5c-1,0-1.8-0.8-1.8-1.8v-8.7c0-2,1.6-3.6,3.6-3.6h16.5
		c1,0,1.8,0.8,1.8,1.8V69C-186,71-187.6,72.6-189.6,72.6z"/>
	<path id="XMLID_96_" style="fill:#FFFFFF;" d="M-159.9,72.6h-16.5c-1,0-1.8-0.8-1.8-1.8v-8.7c0-2,1.6-3.6,3.6-3.6h16.5
		c1,0,1.8,0.8,1.8,1.8V69C-156.3,71-157.9,72.6-159.9,72.6z"/>
	<path id="XMLID_95_" style="fill:#FFFFFF;" d="M-219.3,72.6h-16.5c-1,0-1.8-0.8-1.8-1.8v-8.7c0-2,1.6-3.6,3.6-3.6h16.5
		c1,0,1.8,0.8,1.8,1.8V69C-215.7,71-217.3,72.6-219.3,72.6z"/>
	<path id="XMLID_94_" style="fill:none;stroke:#FFFFFF;stroke-width:2.1482;stroke-miterlimit:10;" d="M-227.8,55.8v-7.6
		c0-1.2,1-2.1,2.1-2.1h52.7c1.2,0,2.1,1,2.1,2.1v7.6"/>
	
		<line id="XMLID_93_" style="fill:#3E6170;stroke:#FFFFFF;stroke-width:2.1482;stroke-miterlimit:10;" x1="-196.9" y1="42.2" x2="-196.9" y2="56.8"/>
</g>
<g id="XMLID_288_">
	<path id="XMLID_273_" style="fill:#FFFFFF;" d="M-72.9,56.9c0.1-0.9,0.4-1.7,0.4-2.6c0-3.3,0.1-6.5,0-9.8c0-1.8,0.4-3.6,2.3-3.6
		c1.4,0,3.1,1,3.9,2.1c0.8,1.1,0.9,2.9,1,4.3c0.1,3.6,0,7.2,0,10.9c0.3,0.1,0.7,0.1,1,0.2c0.3-0.7,0.8-1.3,0.8-2
		c0.1-2.8,0.2-5.5,0-8.3c-0.2-2.6,1-3.9,3.4-4.1c2.4-0.2,3.6,1.5,3.8,3.6c0.3,2.6,0.2,5.3,0.2,7.9c0,1.3,0,2.5,0,3.8
		c0.3,0.1,0.6,0.2,1,0.2c0.3-0.6,0.8-1.1,0.8-1.7c0.1-2.2,0.2-4.5,0-6.7c-0.2-2.3,1.2-3.4,3-3.4c1.2,0,2.7,0.9,3.5,1.9
		c0.7,0.8,0.7,2.3,0.7,3.5c0.1,7.2-0.2,14.5,0.3,21.7c0.5,6.7-4.8,15.7-13,18.1c-7.8,2.2-16.6-0.8-20.2-8.6
		c-3.6-7.7-10.2-11.6-16.3-16.3c-1.7-1.3-4.6-1.8-3-4.9c1.2-2.5,5.9-3.8,8.4-2.3c2.6,1.7,5.1,3.6,8,5.7c0-3.6,0-6.9,0-10.1
		c0-8.8-0.1-17.6-0.1-26.3c0-3.6,1.9-5.2,5.4-4.7c2.6,0.4,3.3,1.9,3.3,4.3c-0.1,8.1,0,16.1,0,24.2c0,1,0.2,2,0.3,2.9
		C-73.6,56.9-73.2,56.9-72.9,56.9z"/>
	<g id="XMLID_289_">
		<path id="XMLID_272_" style="fill:none;stroke:#FFFFFF;stroke-width:1.9657;stroke-miterlimit:10;" d="M-72.9,31.5
			c1.2-1.4,1.9-3.2,1.9-5.1c0-4.3-3.5-7.8-7.8-7.8c-4.3,0-7.8,3.5-7.8,7.8c0,2,0.7,3.8,1.9,5.1"/>
		<path id="XMLID_271_" style="fill:none;stroke:#FFFFFF;stroke-width:1.6074;stroke-miterlimit:10;" d="M-83.6,25.8"/>
		<path id="XMLID_270_" style="fill:none;stroke:#FFFFFF;stroke-width:0.7371;stroke-miterlimit:10;" d="M-72.9,40.2
			c5.3-2.3,9.1-7.6,9.1-13.7c0-8.3-6.7-14.9-14.9-14.9c-8.3,0-14.9,6.7-14.9,14.9c0,6.2,3.7,11.5,9.1,13.7"/>
		<path id="XMLID_269_" style="fill:none;stroke:#FFFFFF;stroke-width:1.2286;stroke-miterlimit:10;" d="M-84.6,36.5
			c-3.5-2-5.8-5.8-5.8-10.1c0-6.5,5.2-11.7,11.7-11.7s11.7,5.2,11.7,11.7c0,4.3-2.3,8.1-5.8,10.1"/>
	</g>
</g>
<g id="XMLID_323_">
	<radialGradient id="XMLID_355_" cx="53.073" cy="52.9685" r="50" gradientUnits="userSpaceOnUse">
		<stop  offset="0" style="stop-color:#3E6170"/>
		<stop  offset="1" style="stop-color:#426788"/>
	</radialGradient>
	
		<circle id="XMLID_324_" style="fill:url(#XMLID_355_);stroke:#FFFFFF;stroke-width:2.1646;stroke-miterlimit:10;" cx="53.1" cy="53" r="50"/>
</g>
<path id="XMLID_318_" style="fill:#FFFFFF;" d="M50.4,63.5c-2.9-2.9-5.7-5.7-8.5-8.5c-0.4-0.4-0.2-0.7,0.1-1
	c4.8-4.8,9.6-9.6,14.4-14.4c5.8-5.7,11.6-11.3,17.4-17c0.8-0.8,1.7-1.5,2.5-2.3c0.9-0.8,2.5-1,3.7-0.4c1.2,0.6,1.9,2,1.7,3.3
	c-0.1,0.4-0.3,0.7-0.5,1.1c-2.4,3.3-4.8,6.7-7.4,9.9c-4.9,6.3-10,12.6-15,18.9c-2.5,3.2-5.1,6.3-7.7,9.5
	C50.9,63,50.7,63.2,50.4,63.5z"/>
<path id="XMLID_320_" style="fill:#FFFFFF;" d="M47.6,65.1c-0.7-0.6-1.2-1.2-1.8-1.8c-2-2-4.1-4.1-6.1-6.1c-0.3-0.3-0.5-0.5-1-0.2
	c-1.5,0.9-3.1,1.7-4.5,2.7c-4.2,3-6.6,7.2-7.4,12.2c-0.3,2.1-0.5,4.2-0.2,6.3c0.3,2.3,0.7,4.5,1.4,6.7c0.1,0.4,0.3,0.7,0.4,1
	c0.1,0,0.1-0.1,0.2-0.1c0.1-1,0.2-2,0.4-2.9c0.6-2.4,1.8-4.3,4.1-5.3c1.4-0.6,2.9-0.6,4.3-0.7c2-0.1,3.8-0.8,5.4-2
	c2.7-2.1,4.1-5.1,5.1-8.3C48.2,66.2,48.2,65.6,47.6,65.1z M37.2,64.2c0,0.4,0,0.8,0,1.2c0,0.3-0.1,0.7-0.3,1c-1,1.7-2,3.2-3.2,4.2
	c-0.7,0.5-1.3,0.7-1.8,0.6c-0.4-0.1-0.7-0.2-1.2,0c-0.8,0.3-1.5,1.3-2.2,2.6c-0.3,0.5-0.5,1.1-0.8,1.6c0,0,0,0-0.1,0
	c0-0.2,0.1-0.4,0.1-0.6c0.4-1.3,0.8-2.6,1.3-3.9c0.5-1.2,1-2.4,1.6-3.6c1.4-2.8,3-4.9,4.7-6.2c0.6-0.4,1.1-0.7,1.7-1.1
	c0.2-0.1,0.2,0,0.2,0.2C37.2,61.5,37.2,62.9,37.2,64.2z"/>
<g id="XMLID_319_">
</g>
<g id="XMLID_321_">
</g>
<g id="XMLID_322_">
</g>
<g id="XMLID_337_">
</g>
<g id="XMLID_338_">
</g>
<g id="XMLID_339_">
</g>
<g id="XMLID_340_">
</g>
<g id="XMLID_341_">
</g>
<g id="XMLID_342_">
</g>
<g id="XMLID_343_">
</g>
<g id="XMLID_344_">
</g>
<g id="XMLID_345_">
</g>
<g id="XMLID_346_">
</g>
<g id="XMLID_347_">
</g>
<g id="XMLID_348_">
</g>
</svg>
