<?xml version="1.0" encoding="utf-8"?>
<!-- Generator: Adobe Illustrator 19.0.0, SVG Export Plug-In . SVG Version: 6.00 Build 0)  -->
<svg version="1.1" id="Layer_1" xmlns="http://www.w3.org/2000/svg" xmlns:xlink="http://www.w3.org/1999/xlink" x="0px" y="0px"
	 viewBox="-427 228 105 105" style="enable-background:new -427 228 105 105;" xml:space="preserve">
<style type="text/css">
	.st0{fill:url(#XMLID_2_);stroke:#FFFFFF;stroke-width:2.1646;stroke-miterlimit:10;}
	.st1{fill:#FFFFFF;}
</style>
<g id="XMLID_414_">
	
		<radialGradient id="XMLID_2_" cx="-373.9" cy="281" r="50" gradientTransform="matrix(1 0 0 -1 0 562)" gradientUnits="userSpaceOnUse">
		<stop  offset="0" style="stop-color:#3E6170"/>
		<stop  offset="1" style="stop-color:#426788"/>
	</radialGradient>
	<circle id="XMLID_415_" class="st0" cx="-373.9" cy="281" r="50"/>
</g>
<g id="XMLID_432_">
	<path id="XMLID_430_" class="st1" d="M-397,288.5c0.5,0.5,0.9,1.1,1.4,1.6c1.7,1.7,3.4,3.4,5.1,5.1c0.2,0.2,0.4,0.6,0.4,1
		c0,2.4,0,4.9,0,7.3c0,0.9,0.2,1.1,1.1,1.1c13,0,25.9,0,38.9,0c0.9,0,1.1-0.2,1.1-1.1c0-11.3,0-22.6,0-34c0-0.9-0.2-1.1-1.2-1.1
		c-1.9,0-3.7,0-5.6-0.2c-3.1-0.2-4.9-2-5.2-5.1c0-1.8,0-3.7,0-5.6c0-0.9-0.2-1.2-1.1-1.2c-8.9,0-17.8,0-26.7,0
		c-0.9,0-1.1,0.2-1.1,1.1c0,3.9,0,7.8,0,11.7c0,0.2,0,0.5,0,0.7c-0.1,0.1-0.2,0.1-0.2,0.2c-0.9-0.9-1.8-1.9-2.7-2.8
		c-1.3-1.3-2.6-2.6-3.9-3.9c-0.2-0.2-0.4-0.6-0.4-1c0-1.9,0-3.9,0-5.8c0-4.2,3.1-7.4,7.3-7.4c10.1,0,20.3,0,30.4,0
		c1.2,0,2.1,0.4,2.9,1.2c4.5,4.6,9,9.1,13.5,13.6c0.8,0.8,1.2,1.8,1.2,2.9c0,10.2,0,20.5,0,30.7c0,2.2,0,4.4,0,6.6
		c0,4.4-3.1,7.5-7.5,7.5c-13.4,0-26.8,0-40.2,0c-4.6,0-7.7-3.1-7.6-7.7c0-4.8,0-9.5,0-14.3c0-0.4,0-0.7,0-1.1
		C-397.1,288.6-397.1,288.6-397,288.5z"/>
	<path id="XMLID_439_" class="st1" d="M-407.1,272.6c2.3-2.3,4.5-4.5,6.9-6.9c1.4,1.4,2.8,2.9,4.3,4.4c5.2,5.2,10.4,10.4,15.6,15.6
		c0.7,0.8,1.4,1.7,1.9,2.6c1.8,3.7,3.6,7.4,5.4,11.1c-0.1,0.1-0.1,0.1-0.2,0.2c-0.8-0.3-1.5-0.6-2.3-1c-3.2-1.5-6.5-3-9.6-4.7
		c-1.5-0.8-2.7-2.1-3.9-3.3c-6-5.9-11.9-11.8-17.8-17.7C-406.9,272.8-407,272.7-407.1,272.6z M-385.2,291.3c1,0.6,2,1.1,3,1.7
		c1.5,0.8,1.5,0.8,2.7-0.5c0.2-0.2,0.2-0.6,0.1-0.8c-0.6-1.1-1.2-2.2-1.8-3.3c-0.1-0.2-0.3-0.4-0.5-0.6
		C-382.9,288.9-384,290-385.2,291.3z"/>
	<path id="XMLID_413_" class="st1" d="M-383.9,276c0.5-0.1,1-0.3,1.5-0.3c6.9,0,13.8,0,20.6,0c1.8,0,3.5,0,5.3,0
		c1.6,0,2.7,1,2.7,2.3c0,1.4-1.1,2.4-2.7,2.4c-7.5,0-15,0-22.5,0c-0.3,0-0.6,0-0.8-0.2c-1.4-1.3-2.8-2.7-4.1-4
		C-384,276.2-384,276.1-383.9,276z"/>
	<path id="XMLID_412_" class="st1" d="M-375.4,285.3c3.2,0,6.4,0,9.6,0c3.1,0,6.2,0,9.2,0c1.1,0,2,0.4,2.5,1.5
		c0.7,1.6-0.5,3.3-2.3,3.3c-2.9,0-5.8,0-8.6,0c-2.5,0-4.9,0-7.4,0c-0.2,0-0.6-0.1-0.7-0.3C-373.8,288.4-374.6,286.9-375.4,285.3z"/>
	<path id="XMLID_411_" class="st1" d="M-375.5,268.4c-2.4,0-4.8,0-7.1,0c-1.1,0-2-0.6-2.3-1.6c-0.3-1-0.1-2,0.8-2.6
		c0.4-0.3,1-0.5,1.5-0.5c4.8,0,9.5,0,14.3,0c1.4,0,2.5,1.1,2.5,2.4c0,1.3-1.1,2.3-2.5,2.3C-370.8,268.4-373.2,268.4-375.5,268.4z"/>
	<path id="XMLID_410_" class="st1" d="M-402.8,263.5c-2.2,2.2-4.4,4.4-6.6,6.6c-1.1-1.1-2.4-2.2-3.5-3.4c-1.6-1.8-1.5-4.6,0.2-6.4
		c1.7-1.8,4.5-2.1,6.3-0.5C-405.1,260.9-404,262.3-402.8,263.5z"/>
	<path id="XMLID_409_" class="st1" d="M-368.8,299.7c-0.6-1.6-1.2-3.1-1.8-4.7c1.4,0,2.8,0,4.1,0c3.4,0,6.7,0,10.1,0
		c1.3,0,2.1,0.6,2.4,1.8c0.3,1-0.1,2-1,2.6c-0.4,0.2-0.8,0.4-1.3,0.4C-360.4,299.8-364.6,299.8-368.8,299.7L-368.8,299.7z"/>
</g>
<g id="XMLID_533_">
</g>
<g id="XMLID_534_">
</g>
<g id="XMLID_535_">
</g>
<g id="XMLID_536_">
</g>
<g id="XMLID_537_">
</g>
<g id="XMLID_538_">
</g>
<g id="XMLID_539_">
</g>
<g id="XMLID_540_">
</g>
<g id="XMLID_541_">
</g>
<g id="XMLID_542_">
</g>
<g id="XMLID_543_">
</g>
<g id="XMLID_544_">
</g>
<g id="XMLID_545_">
</g>
<g id="XMLID_546_">
</g>
<g id="XMLID_547_">
</g>
</svg>
