<?xml version="1.0" encoding="utf-8"?>
<!-- Generator: Adobe Illustrator 19.0.0, SVG Export Plug-In . SVG Version: 6.00 Build 0)  -->
<svg version="1.1" id="Layer_1" xmlns="http://www.w3.org/2000/svg" xmlns:xlink="http://www.w3.org/1999/xlink" x="0px" y="0px"
	 viewBox="0 0 105 105" style="enable-background:new 0 0 105 105;" xml:space="preserve">
<g id="XMLID_1_">
	<radialGradient id="XMLID_283_" cx="53.073" cy="52.9685" r="50" gradientUnits="userSpaceOnUse">
		<stop  offset="0" style="stop-color:#3E6170"/>
		<stop  offset="1" style="stop-color:#426788"/>
	</radialGradient>
	
		<circle id="XMLID_7_" style="fill:url(#XMLID_283_);stroke:#FFFFFF;stroke-width:2.1646;stroke-miterlimit:10;" cx="53.1" cy="53" r="50"/>
	<path id="XMLID_6_" style="fill:#FFFFFF;stroke:#426788;stroke-width:2.3428;stroke-miterlimit:10;" d="M87.3,42.5
		c0-9.8-12.1-17.8-27-17.8s-27,8-27,17.8s12.1,17.8,27,17.8c2.6,0,5.1-0.2,7.5-0.7l-0.3,0.7c0,0,7.2,9.6,14.9,11.4
		c-2.8-4.3-4.6-11.8-4.9-15.5C83.4,53,87.3,48,87.3,42.5z"/>
	<path id="XMLID_5_" style="fill:#FFFFFF;stroke:#426788;stroke-width:1.7862;stroke-miterlimit:10;" d="M15.7,55.1
		c0.1-8.2,10.7-14.7,23.6-14.6c12.9,0.1,23.4,6.9,23.3,15.1S51.9,70.3,39,70.2c-2.2,0-4.4-0.2-6.5-0.6l0,0.1c0,0-6.1,8.5-12.8,9.9
		c2.5-3.5,4.1-9.8,4.4-12.9C19,63.9,15.7,59.7,15.7,55.1z"/>
	<radialGradient id="XMLID_284_" cx="53.073" cy="52.9685" r="50" gradientUnits="userSpaceOnUse">
		<stop  offset="0" style="stop-color:#3E6170"/>
		<stop  offset="1" style="stop-color:#426788"/>
	</radialGradient>
	
		<circle id="XMLID_4_" style="fill:url(#XMLID_284_);stroke:#FFFFFF;stroke-width:2.1646;stroke-miterlimit:10;" cx="53.1" cy="53" r="50"/>
	<path id="XMLID_3_" style="fill:#FFFFFF;stroke:#426788;stroke-width:2.3428;stroke-miterlimit:10;" d="M87.3,42.5
		c0-9.8-12.1-17.8-27-17.8s-27,8-27,17.8s12.1,17.8,27,17.8c2.6,0,5.1-0.2,7.5-0.7l-0.3,0.7c0,0,7.2,9.6,14.9,11.4
		c-2.8-4.3-4.6-11.8-4.9-15.5C83.4,53,87.3,48,87.3,42.5z"/>
	<path id="XMLID_2_" style="fill:#FFFFFF;stroke:#426788;stroke-width:1.7862;stroke-miterlimit:10;" d="M15.7,55.1
		c0.1-8.2,10.7-14.7,23.6-14.6c12.9,0.1,23.4,6.9,23.3,15.1S51.9,70.3,39,70.2c-2.2,0-4.4-0.2-6.5-0.6l0,0.1c0,0-6.1,8.5-12.8,9.9
		c2.5-3.5,4.1-9.8,4.4-12.9C19,63.9,15.7,59.7,15.7,55.1z"/>
</g>
<g id="XMLID_74_">
	<radialGradient id="XMLID_285_" cx="178.073" cy="52.9685" r="50" gradientUnits="userSpaceOnUse">
		<stop  offset="0" style="stop-color:#3E6170"/>
		<stop  offset="1" style="stop-color:#426788"/>
	</radialGradient>
	
		<circle id="XMLID_80_" style="fill:url(#XMLID_285_);stroke:#FFFFFF;stroke-width:2.1646;stroke-miterlimit:10;" cx="178.1" cy="53" r="50"/>
	<path id="XMLID_79_" style="fill:#FFFFFF;stroke:#426788;stroke-width:2.3428;stroke-miterlimit:10;" d="M212.3,42.5
		c0-9.8-12.1-17.8-27-17.8c-14.9,0-27,8-27,17.8s12.1,17.8,27,17.8c2.6,0,5.1-0.2,7.5-0.7l-0.3,0.7c0,0,7.2,9.6,14.9,11.4
		c-2.8-4.3-4.6-11.8-4.9-15.5C208.4,53,212.3,48,212.3,42.5z"/>
	<path id="XMLID_78_" style="fill:#FFFFFF;stroke:#426788;stroke-width:1.7862;stroke-miterlimit:10;" d="M140.7,55.1
		c0.1-8.2,10.7-14.7,23.6-14.6c12.9,0.1,23.4,6.9,23.3,15.1S176.9,70.3,164,70.2c-2.2,0-4.4-0.2-6.5-0.6l0,0.1c0,0-6.1,8.5-12.8,9.9
		c2.5-3.5,4.1-9.8,4.4-12.9C144,63.9,140.7,59.7,140.7,55.1z"/>
	<radialGradient id="XMLID_286_" cx="178.073" cy="52.9685" r="50" gradientUnits="userSpaceOnUse">
		<stop  offset="0" style="stop-color:#3E6170"/>
		<stop  offset="1" style="stop-color:#426788"/>
	</radialGradient>
	
		<circle id="XMLID_77_" style="fill:url(#XMLID_286_);stroke:#FFFFFF;stroke-width:2.1646;stroke-miterlimit:10;" cx="178.1" cy="53" r="50"/>
</g>
<g id="XMLID_76_">
	<path id="XMLID_98_" style="fill:none;stroke:#FFFFFF;stroke-width:3.4372;stroke-miterlimit:10;" d="M186.8,38.7h-19.6
		c-1.2,0-2.1-1-2.1-2.1V26.3c0-2.4,1.9-4.3,4.3-4.3h19.6c1.2,0,2.1,1,2.1,2.1v10.3C191,36.8,189.1,38.7,186.8,38.7z"/>
	<path id="XMLID_97_" style="fill:#FFFFFF;" d="M185.4,72.6h-16.5c-1,0-1.8-0.8-1.8-1.8v-8.7c0-2,1.6-3.6,3.6-3.6h16.5
		c1,0,1.8,0.8,1.8,1.8V69C189,71,187.4,72.6,185.4,72.6z"/>
	<path id="XMLID_96_" style="fill:#FFFFFF;" d="M215.1,72.6h-16.5c-1,0-1.8-0.8-1.8-1.8v-8.7c0-2,1.6-3.6,3.6-3.6h16.5
		c1,0,1.8,0.8,1.8,1.8V69C218.7,71,217.1,72.6,215.1,72.6z"/>
	<path id="XMLID_95_" style="fill:#FFFFFF;" d="M155.7,72.6h-16.5c-1,0-1.8-0.8-1.8-1.8v-8.7c0-2,1.6-3.6,3.6-3.6h16.5
		c1,0,1.8,0.8,1.8,1.8V69C159.3,71,157.7,72.6,155.7,72.6z"/>
	<path id="XMLID_94_" style="fill:none;stroke:#FFFFFF;stroke-width:2.1482;stroke-miterlimit:10;" d="M147.2,55.8v-7.6
		c0-1.2,1-2.1,2.1-2.1H202c1.2,0,2.1,1,2.1,2.1v7.6"/>
	
		<line id="XMLID_93_" style="fill:#3E6170;stroke:#FFFFFF;stroke-width:2.1482;stroke-miterlimit:10;" x1="178.1" y1="42.2" x2="178.1" y2="56.8"/>
</g>
<g id="XMLID_267_">
</g>
<g id="XMLID_268_">
</g>
<g id="XMLID_269_">
</g>
<g id="XMLID_270_">
</g>
<g id="XMLID_271_">
</g>
<g id="XMLID_272_">
</g>
<g id="XMLID_273_">
</g>
<g id="XMLID_274_">
</g>
<g id="XMLID_275_">
</g>
<g id="XMLID_276_">
</g>
<g id="XMLID_277_">
</g>
<g id="XMLID_278_">
</g>
<g id="XMLID_279_">
</g>
<g id="XMLID_280_">
</g>
<g id="XMLID_281_">
</g>
</svg>
