<?xml version="1.0" encoding="utf-8"?>
<!-- Generator: Adobe Illustrator 19.0.0, SVG Export Plug-In . SVG Version: 6.00 Build 0)  -->
<svg version="1.1" id="Layer_1" xmlns="http://www.w3.org/2000/svg" xmlns:xlink="http://www.w3.org/1999/xlink" x="0px" y="0px"
	 viewBox="-427 228 105 105" style="enable-background:new -427 228 105 105;" xml:space="preserve">
<style type="text/css">
	.st0{fill:url(#XMLID_2_);stroke:#FFFFFF;stroke-width:2.1646;stroke-miterlimit:10;}
	.st1{fill:#FFFFFF;}
	.st2{fill:none;stroke:#FFFFFF;stroke-width:1.9657;stroke-miterlimit:10;}
	.st3{fill:none;stroke:#FFFFFF;stroke-width:1.6074;stroke-miterlimit:10;}
	.st4{fill:none;stroke:#FFFFFF;stroke-width:0.7371;stroke-miterlimit:10;}
	.st5{fill:none;stroke:#FFFFFF;stroke-width:1.2286;stroke-miterlimit:10;}
</style>
<g id="XMLID_268_">
	
		<radialGradient id="XMLID_2_" cx="-373.9" cy="281" r="50" gradientTransform="matrix(1 0 0 -1 0 562)" gradientUnits="userSpaceOnUse">
		<stop  offset="0" style="stop-color:#3E6170"/>
		<stop  offset="1" style="stop-color:#426788"/>
	</radialGradient>
	<circle id="XMLID_274_" class="st0" cx="-373.9" cy="281" r="50"/>
</g>
<g id="XMLID_288_">
	<path id="XMLID_273_" class="st1" d="M-374.9,284.9c0.1-0.9,0.4-1.7,0.4-2.6c0-3.3,0.1-6.5,0-9.8c0-1.8,0.4-3.6,2.3-3.6
		c1.4,0,3.1,1,3.9,2.1c0.8,1.1,0.9,2.9,1,4.3c0.1,3.6,0,7.2,0,10.9c0.3,0.1,0.7,0.1,1,0.2c0.3-0.7,0.8-1.3,0.8-2
		c0.1-2.8,0.2-5.5,0-8.3c-0.2-2.6,1-3.9,3.4-4.1c2.4-0.2,3.6,1.5,3.8,3.6c0.3,2.6,0.2,5.3,0.2,7.9c0,1.3,0,2.5,0,3.8
		c0.3,0.1,0.6,0.2,1,0.2c0.3-0.6,0.8-1.1,0.8-1.7c0.1-2.2,0.2-4.5,0-6.7c-0.2-2.3,1.2-3.4,3-3.4c1.2,0,2.7,0.9,3.5,1.9
		c0.7,0.8,0.7,2.3,0.7,3.5c0.1,7.2-0.2,14.5,0.3,21.7c0.5,6.7-4.8,15.7-13,18.1c-7.8,2.2-16.6-0.8-20.2-8.6
		c-3.6-7.7-10.2-11.6-16.3-16.3c-1.7-1.3-4.6-1.8-3-4.9c1.2-2.5,5.9-3.8,8.4-2.3c2.6,1.7,5.1,3.6,8,5.7c0-3.6,0-6.9,0-10.1
		c0-8.8-0.1-17.6-0.1-26.3c0-3.6,1.9-5.2,5.4-4.7c2.6,0.4,3.3,1.9,3.3,4.3c-0.1,8.1,0,16.1,0,24.2c0,1,0.2,2,0.3,2.9
		C-375.6,284.9-375.2,284.9-374.9,284.9z"/>
	<g id="XMLID_289_">
		<path id="XMLID_272_" class="st2" d="M-374.9,259.5c1.2-1.4,1.9-3.2,1.9-5.1c0-4.3-3.5-7.8-7.8-7.8c-4.3,0-7.8,3.5-7.8,7.8
			c0,2,0.7,3.8,1.9,5.1"/>
		<path id="XMLID_271_" class="st3" d="M-385.6,253.8"/>
		<path id="XMLID_270_" class="st4" d="M-374.9,268.2c5.3-2.3,9.1-7.6,9.1-13.7c0-8.3-6.7-14.9-14.9-14.9c-8.3,0-14.9,6.7-14.9,14.9
			c0,6.2,3.7,11.5,9.1,13.7"/>
		<path id="XMLID_269_" class="st5" d="M-386.6,264.5c-3.5-2-5.8-5.8-5.8-10.1c0-6.5,5.2-11.7,11.7-11.7s11.6,5.3,11.6,11.7
			c0,4.3-2.3,8.1-5.8,10.1"/>
	</g>
</g>
<g id="XMLID_302_">
</g>
<g id="XMLID_303_">
</g>
<g id="XMLID_304_">
</g>
<g id="XMLID_305_">
</g>
<g id="XMLID_306_">
</g>
<g id="XMLID_307_">
</g>
<g id="XMLID_308_">
</g>
<g id="XMLID_309_">
</g>
<g id="XMLID_310_">
</g>
<g id="XMLID_311_">
</g>
<g id="XMLID_312_">
</g>
<g id="XMLID_313_">
</g>
<g id="XMLID_314_">
</g>
<g id="XMLID_315_">
</g>
<g id="XMLID_316_">
</g>
</svg>
