<?xml version="1.0" encoding="utf-8"?>
<!-- Generator: Adobe Illustrator 19.0.0, SVG Export Plug-In . SVG Version: 6.00 Build 0)  -->
<svg version="1.1" id="Layer_1" xmlns="http://www.w3.org/2000/svg" xmlns:xlink="http://www.w3.org/1999/xlink" x="0px" y="0px"
	 viewBox="0 0 105 105" style="enable-background:new 0 0 105 105;" xml:space="preserve">
<g id="XMLID_1_">
	<radialGradient id="XMLID_296_" cx="-71.927" cy="52.9685" r="50" gradientUnits="userSpaceOnUse">
		<stop  offset="0" style="stop-color:#3E6170"/>
		<stop  offset="1" style="stop-color:#426788"/>
	</radialGradient>
	
		<circle id="XMLID_7_" style="fill:url(#XMLID_296_);stroke:#FFFFFF;stroke-width:2.1646;stroke-miterlimit:10;" cx="-71.9" cy="53" r="50"/>
	<path id="XMLID_6_" style="fill:#FFFFFF;stroke:#426788;stroke-width:2.3428;stroke-miterlimit:10;" d="M-37.7,42.5
		c0-9.8-12.1-17.8-27-17.8s-27,8-27,17.8s12.1,17.8,27,17.8c2.6,0,5.1-0.2,7.5-0.7l-0.3,0.7c0,0,7.2,9.6,14.9,11.4
		c-2.8-4.3-4.6-11.8-4.9-15.5C-41.6,53-37.7,48-37.7,42.5z"/>
	<path id="XMLID_5_" style="fill:#FFFFFF;stroke:#426788;stroke-width:1.7862;stroke-miterlimit:10;" d="M-109.3,55.1
		c0.1-8.2,10.7-14.7,23.6-14.6c12.9,0.1,23.4,6.9,23.3,15.1S-73.1,70.3-86,70.2c-2.2,0-4.4-0.2-6.5-0.6l0,0.1c0,0-6.1,8.5-12.8,9.9
		c2.5-3.5,4.1-9.8,4.4-12.9C-106,63.9-109.3,59.7-109.3,55.1z"/>
	<radialGradient id="XMLID_297_" cx="-71.927" cy="52.9685" r="50" gradientUnits="userSpaceOnUse">
		<stop  offset="0" style="stop-color:#3E6170"/>
		<stop  offset="1" style="stop-color:#426788"/>
	</radialGradient>
	
		<circle id="XMLID_4_" style="fill:url(#XMLID_297_);stroke:#FFFFFF;stroke-width:2.1646;stroke-miterlimit:10;" cx="-71.9" cy="53" r="50"/>
	<path id="XMLID_3_" style="fill:#FFFFFF;stroke:#426788;stroke-width:2.3428;stroke-miterlimit:10;" d="M-37.7,42.5
		c0-9.8-12.1-17.8-27-17.8s-27,8-27,17.8s12.1,17.8,27,17.8c2.6,0,5.1-0.2,7.5-0.7l-0.3,0.7c0,0,7.2,9.6,14.9,11.4
		c-2.8-4.3-4.6-11.8-4.9-15.5C-41.6,53-37.7,48-37.7,42.5z"/>
	<path id="XMLID_2_" style="fill:#FFFFFF;stroke:#426788;stroke-width:1.7862;stroke-miterlimit:10;" d="M-109.3,55.1
		c0.1-8.2,10.7-14.7,23.6-14.6c12.9,0.1,23.4,6.9,23.3,15.1S-73.1,70.3-86,70.2c-2.2,0-4.4-0.2-6.5-0.6l0,0.1c0,0-6.1,8.5-12.8,9.9
		c2.5-3.5,4.1-9.8,4.4-12.9C-106,63.9-109.3,59.7-109.3,55.1z"/>
</g>
<g id="XMLID_74_">
	<radialGradient id="XMLID_298_" cx="53.073" cy="52.9685" r="50" gradientUnits="userSpaceOnUse">
		<stop  offset="0" style="stop-color:#3E6170"/>
		<stop  offset="1" style="stop-color:#426788"/>
	</radialGradient>
	
		<circle id="XMLID_80_" style="fill:url(#XMLID_298_);stroke:#FFFFFF;stroke-width:2.1646;stroke-miterlimit:10;" cx="53.1" cy="53" r="50"/>
	<path id="XMLID_79_" style="fill:#FFFFFF;stroke:#426788;stroke-width:2.3428;stroke-miterlimit:10;" d="M87.3,42.5
		c0-9.8-12.1-17.8-27-17.8s-27,8-27,17.8s12.1,17.8,27,17.8c2.6,0,5.1-0.2,7.5-0.7l-0.3,0.7c0,0,7.2,9.6,14.9,11.4
		c-2.8-4.3-4.6-11.8-4.9-15.5C83.4,53,87.3,48,87.3,42.5z"/>
	<path id="XMLID_78_" style="fill:#FFFFFF;stroke:#426788;stroke-width:1.7862;stroke-miterlimit:10;" d="M15.7,55.1
		c0.1-8.2,10.7-14.7,23.6-14.6c12.9,0.1,23.4,6.9,23.3,15.1S51.9,70.3,39,70.2c-2.2,0-4.4-0.2-6.5-0.6l0,0.1c0,0-6.1,8.5-12.8,9.9
		c2.5-3.5,4.1-9.8,4.4-12.9C19,63.9,15.7,59.7,15.7,55.1z"/>
	<radialGradient id="XMLID_299_" cx="53.073" cy="52.9685" r="50" gradientUnits="userSpaceOnUse">
		<stop  offset="0" style="stop-color:#3E6170"/>
		<stop  offset="1" style="stop-color:#426788"/>
	</radialGradient>
	
		<circle id="XMLID_77_" style="fill:url(#XMLID_299_);stroke:#FFFFFF;stroke-width:2.1646;stroke-miterlimit:10;" cx="53.1" cy="53" r="50"/>
</g>
<g id="XMLID_76_">
	<path id="XMLID_98_" style="fill:none;stroke:#FFFFFF;stroke-width:3.4372;stroke-miterlimit:10;" d="M61.8,38.7H42.2
		c-1.2,0-2.1-1-2.1-2.1V26.3c0-2.4,1.9-4.3,4.3-4.3h19.6c1.2,0,2.1,1,2.1,2.1v10.3C66,36.8,64.1,38.7,61.8,38.7z"/>
	<path id="XMLID_97_" style="fill:#FFFFFF;" d="M60.4,72.6H43.9c-1,0-1.8-0.8-1.8-1.8v-8.7c0-2,1.6-3.6,3.6-3.6h16.5
		c1,0,1.8,0.8,1.8,1.8V69C64,71,62.4,72.6,60.4,72.6z"/>
	<path id="XMLID_96_" style="fill:#FFFFFF;" d="M90.1,72.6H73.6c-1,0-1.8-0.8-1.8-1.8v-8.7c0-2,1.6-3.6,3.6-3.6h16.5
		c1,0,1.8,0.8,1.8,1.8V69C93.7,71,92.1,72.6,90.1,72.6z"/>
	<path id="XMLID_95_" style="fill:#FFFFFF;" d="M30.7,72.6H14.3c-1,0-1.8-0.8-1.8-1.8v-8.7c0-2,1.6-3.6,3.6-3.6h16.5
		c1,0,1.8,0.8,1.8,1.8V69C34.3,71,32.7,72.6,30.7,72.6z"/>
	<path id="XMLID_94_" style="fill:none;stroke:#FFFFFF;stroke-width:2.1482;stroke-miterlimit:10;" d="M22.2,55.8v-7.6
		c0-1.2,1-2.1,2.1-2.1H77c1.2,0,2.1,1,2.1,2.1v7.6"/>
	
		<line id="XMLID_93_" style="fill:#3E6170;stroke:#FFFFFF;stroke-width:2.1482;stroke-miterlimit:10;" x1="53.1" y1="42.2" x2="53.1" y2="56.8"/>
</g>
<g id="XMLID_280_">
</g>
<g id="XMLID_281_">
</g>
<g id="XMLID_282_">
</g>
<g id="XMLID_283_">
</g>
<g id="XMLID_284_">
</g>
<g id="XMLID_285_">
</g>
<g id="XMLID_286_">
</g>
<g id="XMLID_287_">
</g>
<g id="XMLID_288_">
</g>
<g id="XMLID_289_">
</g>
<g id="XMLID_290_">
</g>
<g id="XMLID_291_">
</g>
<g id="XMLID_292_">
</g>
<g id="XMLID_293_">
</g>
<g id="XMLID_294_">
</g>
</svg>
