<?xml version="1.0" encoding="utf-8"?>
<!-- Generator: Adobe Illustrator 19.0.0, SVG Export Plug-In . SVG Version: 6.00 Build 0)  -->
<svg version="1.1" id="Layer_1" xmlns="http://www.w3.org/2000/svg" xmlns:xlink="http://www.w3.org/1999/xlink" x="0px" y="0px"
	 viewBox="-427 228 105 105" style="enable-background:new -427 228 105 105;" xml:space="preserve">
<style type="text/css">
	.st0{fill:url(#XMLID_9_);stroke:#FFFFFF;stroke-width:2.1646;stroke-miterlimit:10;}
	.st1{fill:#FFFFFF;stroke:#426788;stroke-width:2.3428;stroke-miterlimit:10;}
	.st2{fill:#FFFFFF;stroke:#426788;stroke-width:1.7862;stroke-miterlimit:10;}
	.st3{fill:url(#XMLID_10_);stroke:#FFFFFF;stroke-width:2.1646;stroke-miterlimit:10;}
</style>
<g id="XMLID_1_">
	
		<radialGradient id="XMLID_9_" cx="-373.9" cy="281" r="50" gradientTransform="matrix(1 0 0 -1 0 562)" gradientUnits="userSpaceOnUse">
		<stop  offset="0" style="stop-color:#3E6170"/>
		<stop  offset="1" style="stop-color:#426788"/>
	</radialGradient>
	<circle id="XMLID_7_" class="st0" cx="-373.9" cy="281" r="50"/>
	<path id="XMLID_6_" class="st1" d="M-339.7,270.5c0-9.8-12.1-17.8-27-17.8c-14.9,0-27,8-27,17.8s12.1,17.8,27,17.8
		c2.6,0,5.1-0.2,7.5-0.7l-0.3,0.7c0,0,7.2,9.6,14.9,11.4c-2.8-4.3-4.6-11.8-4.9-15.5C-343.6,281-339.7,276-339.7,270.5z"/>
	<path id="XMLID_5_" class="st2" d="M-411.3,283.1c0.1-8.2,10.7-14.7,23.6-14.6c12.9,0.1,23.4,6.9,23.3,15.1
		c-0.1,8.2-10.7,14.7-23.6,14.6c-2.2,0-4.4-0.2-6.5-0.6v0.1c0,0-6.1,8.5-12.8,9.9c2.5-3.5,4.1-9.8,4.4-12.9
		C-408,291.9-411.3,287.7-411.3,283.1z"/>
	
		<radialGradient id="XMLID_10_" cx="-373.9" cy="281" r="50" gradientTransform="matrix(1 0 0 -1 0 562)" gradientUnits="userSpaceOnUse">
		<stop  offset="0" style="stop-color:#3E6170"/>
		<stop  offset="1" style="stop-color:#426788"/>
	</radialGradient>
	<circle id="XMLID_4_" class="st3" cx="-373.9" cy="281" r="50"/>
	<path id="XMLID_3_" class="st1" d="M-339.7,270.5c0-9.8-12.1-17.8-27-17.8c-14.9,0-27,8-27,17.8s12.1,17.8,27,17.8
		c2.6,0,5.1-0.2,7.5-0.7l-0.3,0.7c0,0,7.2,9.6,14.9,11.4c-2.8-4.3-4.6-11.8-4.9-15.5C-343.6,281-339.7,276-339.7,270.5z"/>
	<path id="XMLID_2_" class="st2" d="M-411.3,283.1c0.1-8.2,10.7-14.7,23.6-14.6c12.9,0.1,23.4,6.9,23.3,15.1
		c-0.1,8.2-10.7,14.7-23.6,14.6c-2.2,0-4.4-0.2-6.5-0.6v0.1c0,0-6.1,8.5-12.8,9.9c2.5-3.5,4.1-9.8,4.4-12.9
		C-408,291.9-411.3,287.7-411.3,283.1z"/>
</g>
<g id="XMLID_507_">
</g>
<g id="XMLID_508_">
</g>
<g id="XMLID_509_">
</g>
<g id="XMLID_510_">
</g>
<g id="XMLID_511_">
</g>
<g id="XMLID_512_">
</g>
<g id="XMLID_513_">
</g>
<g id="XMLID_514_">
</g>
<g id="XMLID_515_">
</g>
<g id="XMLID_516_">
</g>
<g id="XMLID_517_">
</g>
<g id="XMLID_518_">
</g>
<g id="XMLID_519_">
</g>
<g id="XMLID_520_">
</g>
<g id="XMLID_521_">
</g>
</svg>
