<?xml version="1.0" encoding="utf-8"?>
<!-- Generator: Adobe Illustrator 19.0.0, SVG Export Plug-In . SVG Version: 6.00 Build 0)  -->
<svg version="1.1" id="Layer_1" xmlns="http://www.w3.org/2000/svg" xmlns:xlink="http://www.w3.org/1999/xlink" x="0px" y="0px"
	 viewBox="-427 228 105 105" style="enable-background:new -427 228 105 105;" xml:space="preserve">
<style type="text/css">
	.st0{fill:url(#XMLID_2_);stroke:#FFFFFF;stroke-width:2.1646;stroke-miterlimit:10;}
	.st1{fill:none;stroke:#FFFFFF;stroke-width:3.1146;stroke-miterlimit:10;}
	.st2{fill:#FFFFFF;}
	.st3{fill:none;stroke:#FFFFFF;stroke-width:1.9466;stroke-miterlimit:10;}
</style>
<g id="XMLID_74_">
	
		<radialGradient id="XMLID_2_" cx="-373.9" cy="281" r="50" gradientTransform="matrix(1 0 0 -1 0 562)" gradientUnits="userSpaceOnUse">
		<stop  offset="0" style="stop-color:#3E6170"/>
		<stop  offset="1" style="stop-color:#426788"/>
	</radialGradient>
	<circle id="XMLID_80_" class="st0" cx="-373.9" cy="281" r="50"/>
</g>
<g id="XMLID_76_">
	<path id="XMLID_98_" class="st1" d="M-366.6,267.9h-17.7c-1.1,0-1.9-0.9-1.9-1.9v-9.4c0-2.2,1.7-3.9,3.9-3.9h17.7
		c1.1,0,1.9,0.9,1.9,1.9v9.4C-362.7,266.1-364.5,267.9-366.6,267.9z"/>
	<path id="XMLID_97_" class="st2" d="M-367.8,298.5h-14.9c-0.9,0-1.6-0.7-1.6-1.6V289c0-1.8,1.5-3.3,3.3-3.3h14.9
		c0.9,0,1.6,0.7,1.6,1.6v7.9C-364.6,297.1-366,298.5-367.8,298.5z"/>
	<path id="XMLID_96_" class="st2" d="M-340.9,298.5h-14.9c-0.9,0-1.6-0.7-1.6-1.6V289c0-1.8,1.5-3.3,3.3-3.3h14.9
		c0.9,0,1.6,0.7,1.6,1.6v7.9C-337.7,297.1-339.1,298.5-340.9,298.5z"/>
	<path id="XMLID_95_" class="st2" d="M-394.7,298.5h-14.9c-0.9,0-1.6-0.7-1.6-1.6V289c0-1.8,1.5-3.3,3.3-3.3h14.9
		c0.9,0,1.6,0.7,1.6,1.6v7.9C-391.5,297.1-392.9,298.5-394.7,298.5z"/>
	<path id="XMLID_94_" class="st3" d="M-402.5,283.3v-6.9c0-1.1,0.9-1.9,1.9-1.9h47.8c1.1,0,1.9,0.9,1.9,1.9v6.9"/>
	<line id="XMLID_93_" class="st3" x1="-374.5" y1="271" x2="-374.5" y2="284.2"/>
</g>
<g id="XMLID_520_">
</g>
<g id="XMLID_521_">
</g>
<g id="XMLID_522_">
</g>
<g id="XMLID_523_">
</g>
<g id="XMLID_524_">
</g>
<g id="XMLID_525_">
</g>
<g id="XMLID_526_">
</g>
<g id="XMLID_527_">
</g>
<g id="XMLID_528_">
</g>
<g id="XMLID_529_">
</g>
<g id="XMLID_530_">
</g>
<g id="XMLID_531_">
</g>
<g id="XMLID_532_">
</g>
<g id="XMLID_533_">
</g>
<g id="XMLID_534_">
</g>
</svg>
