<?xml version="1.0" encoding="utf-8"?>
<!-- Generator: Adobe Illustrator 19.0.0, SVG Export Plug-In . SVG Version: 6.00 Build 0)  -->
<svg version="1.1" id="Layer_1" xmlns="http://www.w3.org/2000/svg" xmlns:xlink="http://www.w3.org/1999/xlink" x="0px" y="0px"
	 viewBox="0 0 105 105" style="enable-background:new 0 0 105 105;" xml:space="preserve">
<g id="XMLID_1_">
	<radialGradient id="XMLID_549_" cx="-571.927" cy="52.9685" r="50" gradientUnits="userSpaceOnUse">
		<stop  offset="0" style="stop-color:#3E6170"/>
		<stop  offset="1" style="stop-color:#426788"/>
	</radialGradient>
	
		<circle id="XMLID_7_" style="fill:url(#XMLID_549_);stroke:#FFFFFF;stroke-width:2.1646;stroke-miterlimit:10;" cx="-571.9" cy="53" r="50"/>
	<path id="XMLID_6_" style="fill:#FFFFFF;stroke:#426788;stroke-width:2.3428;stroke-miterlimit:10;" d="M-537.7,42.5
		c0-9.8-12.1-17.8-27-17.8s-27,8-27,17.8s12.1,17.8,27,17.8c2.6,0,5.1-0.2,7.5-0.7l-0.3,0.7c0,0,7.2,9.6,14.9,11.4
		c-2.8-4.3-4.6-11.8-4.9-15.5C-541.6,53-537.7,48-537.7,42.5z"/>
	<path id="XMLID_5_" style="fill:#FFFFFF;stroke:#426788;stroke-width:1.7862;stroke-miterlimit:10;" d="M-609.3,55.1
		c0.1-8.2,10.7-14.7,23.6-14.6c12.9,0.1,23.4,6.9,23.3,15.1s-10.7,14.7-23.6,14.6c-2.2,0-4.4-0.2-6.5-0.6l0,0.1
		c0,0-6.1,8.5-12.8,9.9c2.5-3.5,4.1-9.8,4.4-12.9C-606,63.9-609.3,59.7-609.3,55.1z"/>
	<radialGradient id="XMLID_550_" cx="-571.927" cy="52.9685" r="50" gradientUnits="userSpaceOnUse">
		<stop  offset="0" style="stop-color:#3E6170"/>
		<stop  offset="1" style="stop-color:#426788"/>
	</radialGradient>
	
		<circle id="XMLID_4_" style="fill:url(#XMLID_550_);stroke:#FFFFFF;stroke-width:2.1646;stroke-miterlimit:10;" cx="-571.9" cy="53" r="50"/>
	<path id="XMLID_3_" style="fill:#FFFFFF;stroke:#426788;stroke-width:2.3428;stroke-miterlimit:10;" d="M-537.7,42.5
		c0-9.8-12.1-17.8-27-17.8s-27,8-27,17.8s12.1,17.8,27,17.8c2.6,0,5.1-0.2,7.5-0.7l-0.3,0.7c0,0,7.2,9.6,14.9,11.4
		c-2.8-4.3-4.6-11.8-4.9-15.5C-541.6,53-537.7,48-537.7,42.5z"/>
	<path id="XMLID_2_" style="fill:#FFFFFF;stroke:#426788;stroke-width:1.7862;stroke-miterlimit:10;" d="M-609.3,55.1
		c0.1-8.2,10.7-14.7,23.6-14.6c12.9,0.1,23.4,6.9,23.3,15.1s-10.7,14.7-23.6,14.6c-2.2,0-4.4-0.2-6.5-0.6l0,0.1
		c0,0-6.1,8.5-12.8,9.9c2.5-3.5,4.1-9.8,4.4-12.9C-606,63.9-609.3,59.7-609.3,55.1z"/>
</g>
<g id="XMLID_268_">
	<radialGradient id="XMLID_551_" cx="-321.927" cy="52.9685" r="50" gradientUnits="userSpaceOnUse">
		<stop  offset="0" style="stop-color:#3E6170"/>
		<stop  offset="1" style="stop-color:#426788"/>
	</radialGradient>
	
		<circle id="XMLID_274_" style="fill:url(#XMLID_551_);stroke:#FFFFFF;stroke-width:2.1646;stroke-miterlimit:10;" cx="-321.9" cy="53" r="50"/>
</g>
<g id="XMLID_74_">
	<radialGradient id="XMLID_552_" cx="-446.927" cy="52.9685" r="50" gradientUnits="userSpaceOnUse">
		<stop  offset="0" style="stop-color:#3E6170"/>
		<stop  offset="1" style="stop-color:#426788"/>
	</radialGradient>
	
		<circle id="XMLID_80_" style="fill:url(#XMLID_552_);stroke:#FFFFFF;stroke-width:2.1646;stroke-miterlimit:10;" cx="-446.9" cy="53" r="50"/>
</g>
<g id="XMLID_76_">
	<path id="XMLID_98_" style="fill:none;stroke:#FFFFFF;stroke-width:3.1146;stroke-miterlimit:10;" d="M-439.6,39.9h-17.7
		c-1.1,0-1.9-0.9-1.9-1.9v-9.4c0-2.2,1.7-3.9,3.9-3.9h17.7c1.1,0,1.9,0.9,1.9,1.9V36C-435.7,38.1-437.5,39.9-439.6,39.9z"/>
	<path id="XMLID_97_" style="fill:#FFFFFF;" d="M-440.8,70.5h-14.9c-0.9,0-1.6-0.7-1.6-1.6V61c0-1.8,1.5-3.3,3.3-3.3h14.9
		c0.9,0,1.6,0.7,1.6,1.6v7.9C-437.6,69.1-439,70.5-440.8,70.5z"/>
	<path id="XMLID_96_" style="fill:#FFFFFF;" d="M-413.9,70.5h-14.9c-0.9,0-1.6-0.7-1.6-1.6V61c0-1.8,1.5-3.3,3.3-3.3h14.9
		c0.9,0,1.6,0.7,1.6,1.6v7.9C-410.7,69.1-412.1,70.5-413.9,70.5z"/>
	<path id="XMLID_95_" style="fill:#FFFFFF;" d="M-467.7,70.5h-14.9c-0.9,0-1.6-0.7-1.6-1.6V61c0-1.8,1.5-3.3,3.3-3.3h14.9
		c0.9,0,1.6,0.7,1.6,1.6v7.9C-464.5,69.1-465.9,70.5-467.7,70.5z"/>
	<path id="XMLID_94_" style="fill:none;stroke:#FFFFFF;stroke-width:1.9466;stroke-miterlimit:10;" d="M-475.5,55.3v-6.9
		c0-1.1,0.9-1.9,1.9-1.9h47.8c1.1,0,1.9,0.9,1.9,1.9v6.9"/>
	
		<line id="XMLID_93_" style="fill:#3E6170;stroke:#FFFFFF;stroke-width:1.9466;stroke-miterlimit:10;" x1="-447.5" y1="43" x2="-447.5" y2="56.2"/>
</g>
<g id="XMLID_288_">
	<path id="XMLID_273_" style="fill:#FFFFFF;" d="M-322.9,56.9c0.1-0.9,0.4-1.7,0.4-2.6c0-3.3,0.1-6.5,0-9.8c0-1.8,0.4-3.6,2.3-3.6
		c1.4,0,3.1,1,3.9,2.1c0.8,1.1,0.9,2.9,1,4.3c0.1,3.6,0,7.2,0,10.9c0.3,0.1,0.7,0.1,1,0.2c0.3-0.7,0.8-1.3,0.8-2
		c0.1-2.8,0.2-5.5,0-8.3c-0.2-2.6,1-3.9,3.4-4.1c2.4-0.2,3.6,1.5,3.8,3.6c0.3,2.6,0.2,5.3,0.2,7.9c0,1.3,0,2.5,0,3.8
		c0.3,0.1,0.6,0.2,1,0.2c0.3-0.6,0.8-1.1,0.8-1.7c0.1-2.2,0.2-4.5,0-6.7c-0.2-2.3,1.2-3.4,3-3.4c1.2,0,2.7,0.9,3.5,1.9
		c0.7,0.8,0.7,2.3,0.7,3.5c0.1,7.2-0.2,14.5,0.3,21.7c0.5,6.7-4.8,15.7-13,18.1c-7.8,2.2-16.6-0.8-20.2-8.6
		c-3.6-7.7-10.2-11.6-16.3-16.3c-1.7-1.3-4.6-1.8-3-4.9c1.2-2.5,5.9-3.8,8.4-2.3c2.6,1.7,5.1,3.6,8,5.7c0-3.6,0-6.9,0-10.1
		c0-8.8-0.1-17.6-0.1-26.3c0-3.6,1.9-5.2,5.4-4.7c2.6,0.4,3.3,1.9,3.3,4.3c-0.1,8.1,0,16.1,0,24.2c0,1,0.2,2,0.3,2.9
		C-323.6,56.9-323.2,56.9-322.9,56.9z"/>
	<g id="XMLID_289_">
		<path id="XMLID_272_" style="fill:none;stroke:#FFFFFF;stroke-width:1.9657;stroke-miterlimit:10;" d="M-322.9,31.5
			c1.2-1.4,1.9-3.2,1.9-5.1c0-4.3-3.5-7.8-7.8-7.8s-7.8,3.5-7.8,7.8c0,2,0.7,3.8,1.9,5.1"/>
		<path id="XMLID_271_" style="fill:none;stroke:#FFFFFF;stroke-width:1.6074;stroke-miterlimit:10;" d="M-333.6,25.8"/>
		<path id="XMLID_270_" style="fill:none;stroke:#FFFFFF;stroke-width:0.7371;stroke-miterlimit:10;" d="M-322.9,40.2
			c5.3-2.3,9.1-7.6,9.1-13.7c0-8.3-6.7-14.9-14.9-14.9s-14.9,6.7-14.9,14.9c0,6.2,3.7,11.5,9.1,13.7"/>
		<path id="XMLID_269_" style="fill:none;stroke:#FFFFFF;stroke-width:1.2286;stroke-miterlimit:10;" d="M-334.6,36.5
			c-3.5-2-5.8-5.8-5.8-10.1c0-6.5,5.2-11.7,11.7-11.7c6.5,0,11.7,5.2,11.7,11.7c0,4.3-2.3,8.1-5.8,10.1"/>
	</g>
</g>
<g id="XMLID_323_">
	<radialGradient id="XMLID_553_" cx="-196.927" cy="52.9685" r="50" gradientUnits="userSpaceOnUse">
		<stop  offset="0" style="stop-color:#3E6170"/>
		<stop  offset="1" style="stop-color:#426788"/>
	</radialGradient>
	
		<circle id="XMLID_324_" style="fill:url(#XMLID_553_);stroke:#FFFFFF;stroke-width:2.1646;stroke-miterlimit:10;" cx="-196.9" cy="53" r="50"/>
</g>
<path id="XMLID_318_" style="fill:#FFFFFF;" d="M-199.6,63.5c-2.9-2.9-5.7-5.7-8.5-8.5c-0.4-0.4-0.2-0.7,0.1-1
	c4.8-4.8,9.6-9.6,14.4-14.4c5.8-5.7,11.6-11.3,17.4-17c0.8-0.8,1.7-1.5,2.5-2.3c0.9-0.8,2.5-1,3.7-0.4c1.2,0.6,1.9,2,1.7,3.3
	c-0.1,0.4-0.3,0.7-0.5,1.1c-2.4,3.3-4.8,6.7-7.4,9.9c-4.9,6.3-10,12.6-15,18.9c-2.5,3.2-5.1,6.3-7.7,9.5
	C-199.1,63-199.3,63.2-199.6,63.5z"/>
<path id="XMLID_320_" style="fill:#FFFFFF;" d="M-202.4,65.1c-0.7-0.6-1.2-1.2-1.8-1.8c-2-2-4.1-4.1-6.1-6.1c-0.3-0.3-0.5-0.5-1-0.2
	c-1.5,0.9-3.1,1.7-4.5,2.7c-4.2,3-6.6,7.2-7.4,12.2c-0.3,2.1-0.5,4.2-0.2,6.3c0.3,2.3,0.7,4.5,1.4,6.7c0.1,0.4,0.3,0.7,0.4,1
	c0.1,0,0.1-0.1,0.2-0.1c0.1-1,0.2-2,0.4-2.9c0.6-2.4,1.8-4.3,4.1-5.3c1.4-0.6,2.9-0.6,4.3-0.7c2-0.1,3.8-0.8,5.4-2
	c2.7-2.1,4.1-5.1,5.1-8.3C-201.8,66.2-201.8,65.6-202.4,65.1z M-212.8,64.2c0,0.4,0,0.8,0,1.2c0,0.3-0.1,0.7-0.3,1
	c-1,1.7-2,3.2-3.2,4.2c-0.7,0.5-1.3,0.7-1.8,0.6c-0.4-0.1-0.7-0.2-1.2,0c-0.8,0.3-1.5,1.3-2.2,2.6c-0.3,0.5-0.5,1.1-0.8,1.6
	c0,0,0,0-0.1,0c0-0.2,0.1-0.4,0.1-0.6c0.4-1.3,0.8-2.6,1.3-3.9c0.5-1.2,1-2.4,1.6-3.6c1.4-2.8,3-4.9,4.7-6.2
	c0.6-0.4,1.1-0.7,1.7-1.1c0.2-0.1,0.2,0,0.2,0.2C-212.8,61.5-212.8,62.9-212.8,64.2z"/>
<g id="XMLID_365_">
	<radialGradient id="XMLID_554_" cx="-71.927" cy="52.9685" r="50" gradientUnits="userSpaceOnUse">
		<stop  offset="0" style="stop-color:#3E6170"/>
		<stop  offset="1" style="stop-color:#426788"/>
	</radialGradient>
	
		<circle id="XMLID_366_" style="fill:url(#XMLID_554_);stroke:#FFFFFF;stroke-width:2.1646;stroke-miterlimit:10;" cx="-71.9" cy="53" r="50"/>
</g>
<g id="XMLID_393_">
	<path id="XMLID_364_" style="fill:#FFFFFF;" d="M-79.4,49c4.6,3.9,9.6,4.9,14.9,1.2c0.4-0.3,0.9-0.7,1.4-0.8
		c3.5-0.5,18.1,8.5,19,12.1c1.4,5.6,2.6,11.4,3.2,17.2c0.2,1.6-1.8,4.5-3.4,5C-62.1,90.1-80.1,89.9-98,84c-3.1-1-4-2.8-3.6-5.7
		c0.5-3.3,1-6.5,1.4-9.8c1-7.9,4.3-13.7,12.9-15.6C-84.8,52.4-82.5,50.5-79.4,49z"/>
	<path id="XMLID_394_" style="fill:#FFFFFF;" d="M-70.2,10.8c-5.9-1.3-13.2,2.5-14,8.2c-1.2,8.2-1.3,16.6,3.4,24.2
		c5.3,8.5,14,8.9,19.1,0.2c2.8-4.8,5.1-16.3,4.6-16.4C-56.4,16.3-58.9,13.2-70.2,10.8z M-69.8,40.8c-0.5,0.5-1.1,0.7-1.9,0.7
		c-0.8,0-1.5-0.2-1.9-0.7c-0.5-0.5-0.7-1.1-0.7-1.8c0-0.7,0.3-1.3,0.8-1.8c0.5-0.5,1.1-0.7,1.9-0.7c0.8,0,1.4,0.2,1.9,0.7
		c0.5,0.5,0.8,1.1,0.8,1.8C-69.1,39.7-69.4,40.3-69.8,40.8z M-64.7,26.1c-0.4,0.8-1.2,1.8-2.2,2.8l-1.3,1.3
		c-0.8,0.8-1.3,1.7-1.4,2.8l-0.1,1H-74c0-1.5,0.2-2.8,0.6-3.7c0.4-0.9,1.1-1.8,2.1-2.7c1-0.9,1.7-1.6,2-2.2s0.5-1.1,0.5-1.8
		c0-1.9-0.9-2.8-2.6-2.8c-0.8,0-1.5,0.3-2,0.8c-0.5,0.5-0.7,1.2-0.8,2.1H-79c0-2.1,0.7-3.8,2-4.9c1.3-1.2,3.2-1.8,5.5-1.8
		c2.3,0,4.1,0.6,5.4,1.7c1.3,1.1,1.9,2.7,1.9,4.8C-64.1,24.4-64.3,25.2-64.7,26.1z"/>
</g>
<g id="XMLID_414_">
	<radialGradient id="XMLID_555_" cx="53.073" cy="52.9685" r="50" gradientUnits="userSpaceOnUse">
		<stop  offset="0" style="stop-color:#3E6170"/>
		<stop  offset="1" style="stop-color:#426788"/>
	</radialGradient>
	
		<circle id="XMLID_415_" style="fill:url(#XMLID_555_);stroke:#FFFFFF;stroke-width:2.1646;stroke-miterlimit:10;" cx="53.1" cy="53" r="50"/>
</g>
<g id="XMLID_432_">
	<path id="XMLID_430_" style="fill:#FFFFFF;" d="M30,60.5c0.5,0.5,0.9,1.1,1.4,1.6c1.7,1.7,3.4,3.4,5.1,5.1c0.2,0.2,0.4,0.6,0.4,1
		c0,2.4,0,4.9,0,7.3c0,0.9,0.2,1.1,1.1,1.1c13,0,25.9,0,38.9,0c0.9,0,1.1-0.2,1.1-1.1c0-11.3,0-22.6,0-34c0-0.9-0.2-1.1-1.2-1.1
		c-1.9,0-3.7,0-5.6-0.2c-3.1-0.2-4.9-2-5.2-5.1C66,33.3,66,31.4,66,29.5c0-0.9-0.2-1.2-1.1-1.2c-8.9,0-17.8,0-26.7,0
		c-0.9,0-1.1,0.2-1.1,1.1c0,3.9,0,7.8,0,11.7c0,0.2,0,0.5,0,0.7c-0.1,0.1-0.2,0.1-0.2,0.2c-0.9-0.9-1.8-1.9-2.7-2.8
		c-1.3-1.3-2.6-2.6-3.9-3.9c-0.2-0.2-0.4-0.6-0.4-1c0-1.9,0-3.9,0-5.8c0-4.2,3.1-7.4,7.3-7.4c10.1,0,20.3,0,30.4,0
		c1.2,0,2.1,0.4,2.9,1.2c4.5,4.6,9,9.1,13.5,13.6c0.8,0.8,1.2,1.8,1.2,2.9c0,10.2,0,20.5,0,30.7c0,2.2,0,4.4,0,6.6
		c0,4.4-3.1,7.5-7.5,7.5c-13.4,0-26.8,0-40.2,0c-4.6,0-7.7-3.1-7.6-7.7c0-4.8,0-9.5,0-14.3c0-0.4,0-0.7,0-1.1
		C29.9,60.6,29.9,60.6,30,60.5z"/>
	<path id="XMLID_439_" style="fill:#FFFFFF;" d="M19.9,44.6c2.3-2.3,4.5-4.5,6.9-6.9c1.4,1.4,2.8,2.9,4.3,4.4
		c5.2,5.2,10.4,10.4,15.6,15.6c0.7,0.8,1.4,1.7,1.9,2.6c1.8,3.7,3.6,7.4,5.4,11.1c-0.1,0.1-0.1,0.1-0.2,0.2c-0.8-0.3-1.5-0.6-2.3-1
		c-3.2-1.5-6.5-3-9.6-4.7c-1.5-0.8-2.7-2.1-3.9-3.3C32,56.7,26.1,50.8,20.2,44.9C20.1,44.8,20,44.7,19.9,44.6z M41.8,63.3
		c1,0.6,2,1.1,3,1.7c1.5,0.8,1.5,0.8,2.7-0.5c0.2-0.2,0.2-0.6,0.1-0.8c-0.6-1.1-1.2-2.2-1.8-3.3c-0.1-0.2-0.3-0.4-0.5-0.6
		C44.1,60.9,43,62,41.8,63.3z"/>
	<path id="XMLID_413_" style="fill:#FFFFFF;" d="M43.1,48c0.5-0.1,1-0.3,1.5-0.3c6.9,0,13.8,0,20.6,0c1.8,0,3.5,0,5.3,0
		c1.6,0,2.7,1,2.7,2.3c0,1.4-1.1,2.4-2.7,2.4c-7.5,0-15,0-22.5,0c-0.3,0-0.6,0-0.8-0.2c-1.4-1.3-2.8-2.7-4.1-4
		C43,48.2,43,48.1,43.1,48z"/>
	<path id="XMLID_412_" style="fill:#FFFFFF;" d="M51.6,57.3c3.2,0,6.4,0,9.6,0c3.1,0,6.2,0,9.2,0c1.1,0,2,0.4,2.5,1.5
		c0.7,1.6-0.5,3.3-2.3,3.3c-2.9,0-5.8,0-8.6,0c-2.5,0-4.9,0-7.4,0c-0.2,0-0.6-0.1-0.7-0.3C53.2,60.4,52.4,58.9,51.6,57.3z"/>
	<path id="XMLID_411_" style="fill:#FFFFFF;" d="M51.5,40.4c-2.4,0-4.8,0-7.1,0c-1.1,0-2-0.6-2.3-1.6c-0.3-1-0.1-2,0.8-2.6
		c0.4-0.3,1-0.5,1.5-0.5c4.8,0,9.5,0,14.3,0c1.4,0,2.5,1.1,2.5,2.4c0,1.3-1.1,2.3-2.5,2.3C56.2,40.4,53.8,40.4,51.5,40.4z"/>
	<path id="XMLID_410_" style="fill:#FFFFFF;" d="M24.2,35.5c-2.2,2.2-4.4,4.4-6.6,6.6c-1.1-1.1-2.4-2.2-3.5-3.4
		c-1.6-1.8-1.5-4.6,0.2-6.4c1.7-1.8,4.5-2.1,6.3-0.5C21.9,32.9,23,34.3,24.2,35.5z"/>
	<path id="XMLID_409_" style="fill:#FFFFFF;" d="M58.2,71.7c-0.6-1.6-1.2-3.1-1.8-4.7c1.4,0,2.8,0,4.1,0c3.4,0,6.7,0,10.1,0
		c1.3,0,2.1,0.6,2.4,1.8c0.3,1-0.1,2-1,2.6c-0.4,0.2-0.8,0.4-1.3,0.4C66.6,71.8,62.4,71.8,58.2,71.7C58.2,71.7,58.2,71.7,58.2,71.7z
		"/>
</g>
<g id="XMLID_533_">
</g>
<g id="XMLID_534_">
</g>
<g id="XMLID_535_">
</g>
<g id="XMLID_536_">
</g>
<g id="XMLID_537_">
</g>
<g id="XMLID_538_">
</g>
<g id="XMLID_539_">
</g>
<g id="XMLID_540_">
</g>
<g id="XMLID_541_">
</g>
<g id="XMLID_542_">
</g>
<g id="XMLID_543_">
</g>
<g id="XMLID_544_">
</g>
<g id="XMLID_545_">
</g>
<g id="XMLID_546_">
</g>
<g id="XMLID_547_">
</g>
</svg>
