<?xml version="1.0" encoding="utf-8"?>
<!-- Generator: Adobe Illustrator 19.0.0, SVG Export Plug-In . SVG Version: 6.00 Build 0)  -->
<svg version="1.1" id="Layer_1" xmlns="http://www.w3.org/2000/svg" xmlns:xlink="http://www.w3.org/1999/xlink" x="0px" y="0px"
	 viewBox="0 0 105 105" style="enable-background:new 0 0 105 105;" xml:space="preserve">
<g id="XMLID_1_">
	<radialGradient id="XMLID_715_" cx="-696.927" cy="52.9685" r="50" gradientUnits="userSpaceOnUse">
		<stop  offset="0" style="stop-color:#3E6170"/>
		<stop  offset="1" style="stop-color:#426788"/>
	</radialGradient>
	
		<circle id="XMLID_7_" style="fill:url(#XMLID_715_);stroke:#FFFFFF;stroke-width:2.1646;stroke-miterlimit:10;" cx="-696.9" cy="53" r="50"/>
	<path id="XMLID_6_" style="fill:#FFFFFF;stroke:#426788;stroke-width:2.3428;stroke-miterlimit:10;" d="M-662.7,42.5
		c0-9.8-12.1-17.8-27-17.8s-27,8-27,17.8s12.1,17.8,27,17.8c2.6,0,5.1-0.2,7.5-0.7l-0.3,0.7c0,0,7.2,9.6,14.9,11.4
		c-2.8-4.3-4.6-11.8-4.9-15.5C-666.6,53-662.7,48-662.7,42.5z"/>
	<path id="XMLID_5_" style="fill:#FFFFFF;stroke:#426788;stroke-width:1.7862;stroke-miterlimit:10;" d="M-734.3,55.1
		c0.1-8.2,10.7-14.7,23.6-14.6c12.9,0.1,23.4,6.9,23.3,15.1s-10.7,14.7-23.6,14.6c-2.2,0-4.4-0.2-6.5-0.6l0,0.1
		c0,0-6.1,8.5-12.8,9.9c2.5-3.5,4.1-9.8,4.4-12.9C-731,63.9-734.3,59.7-734.3,55.1z"/>
	<radialGradient id="XMLID_716_" cx="-696.927" cy="52.9685" r="50" gradientUnits="userSpaceOnUse">
		<stop  offset="0" style="stop-color:#3E6170"/>
		<stop  offset="1" style="stop-color:#426788"/>
	</radialGradient>
	
		<circle id="XMLID_4_" style="fill:url(#XMLID_716_);stroke:#FFFFFF;stroke-width:2.1646;stroke-miterlimit:10;" cx="-696.9" cy="53" r="50"/>
	<path id="XMLID_3_" style="fill:#FFFFFF;stroke:#426788;stroke-width:2.3428;stroke-miterlimit:10;" d="M-662.7,42.5
		c0-9.8-12.1-17.8-27-17.8s-27,8-27,17.8s12.1,17.8,27,17.8c2.6,0,5.1-0.2,7.5-0.7l-0.3,0.7c0,0,7.2,9.6,14.9,11.4
		c-2.8-4.3-4.6-11.8-4.9-15.5C-666.6,53-662.7,48-662.7,42.5z"/>
	<path id="XMLID_2_" style="fill:#FFFFFF;stroke:#426788;stroke-width:1.7862;stroke-miterlimit:10;" d="M-734.3,55.1
		c0.1-8.2,10.7-14.7,23.6-14.6c12.9,0.1,23.4,6.9,23.3,15.1s-10.7,14.7-23.6,14.6c-2.2,0-4.4-0.2-6.5-0.6l0,0.1
		c0,0-6.1,8.5-12.8,9.9c2.5-3.5,4.1-9.8,4.4-12.9C-731,63.9-734.3,59.7-734.3,55.1z"/>
</g>
<g id="XMLID_268_">
	<radialGradient id="XMLID_717_" cx="-446.927" cy="52.9685" r="50" gradientUnits="userSpaceOnUse">
		<stop  offset="0" style="stop-color:#3E6170"/>
		<stop  offset="1" style="stop-color:#426788"/>
	</radialGradient>
	
		<circle id="XMLID_274_" style="fill:url(#XMLID_717_);stroke:#FFFFFF;stroke-width:2.1646;stroke-miterlimit:10;" cx="-446.9" cy="53" r="50"/>
</g>
<g id="XMLID_74_">
	<radialGradient id="XMLID_718_" cx="-571.927" cy="52.9685" r="50" gradientUnits="userSpaceOnUse">
		<stop  offset="0" style="stop-color:#3E6170"/>
		<stop  offset="1" style="stop-color:#426788"/>
	</radialGradient>
	
		<circle id="XMLID_80_" style="fill:url(#XMLID_718_);stroke:#FFFFFF;stroke-width:2.1646;stroke-miterlimit:10;" cx="-571.9" cy="53" r="50"/>
</g>
<g id="XMLID_76_">
	<path id="XMLID_98_" style="fill:none;stroke:#FFFFFF;stroke-width:3.1146;stroke-miterlimit:10;" d="M-564.6,39.9h-17.7
		c-1.1,0-1.9-0.9-1.9-1.9v-9.4c0-2.2,1.7-3.9,3.9-3.9h17.7c1.1,0,1.9,0.9,1.9,1.9V36C-560.7,38.1-562.5,39.9-564.6,39.9z"/>
	<path id="XMLID_97_" style="fill:#FFFFFF;" d="M-565.8,70.5h-14.9c-0.9,0-1.6-0.7-1.6-1.6V61c0-1.8,1.5-3.3,3.3-3.3h14.9
		c0.9,0,1.6,0.7,1.6,1.6v7.9C-562.6,69.1-564,70.5-565.8,70.5z"/>
	<path id="XMLID_96_" style="fill:#FFFFFF;" d="M-538.9,70.5h-14.9c-0.9,0-1.6-0.7-1.6-1.6V61c0-1.8,1.5-3.3,3.3-3.3h14.9
		c0.9,0,1.6,0.7,1.6,1.6v7.9C-535.7,69.1-537.1,70.5-538.9,70.5z"/>
	<path id="XMLID_95_" style="fill:#FFFFFF;" d="M-592.7,70.5h-14.9c-0.9,0-1.6-0.7-1.6-1.6V61c0-1.8,1.5-3.3,3.3-3.3h14.9
		c0.9,0,1.6,0.7,1.6,1.6v7.9C-589.5,69.1-590.9,70.5-592.7,70.5z"/>
	<path id="XMLID_94_" style="fill:none;stroke:#FFFFFF;stroke-width:1.9466;stroke-miterlimit:10;" d="M-600.5,55.3v-6.9
		c0-1.1,0.9-1.9,1.9-1.9h47.8c1.1,0,1.9,0.9,1.9,1.9v6.9"/>
	
		<line id="XMLID_93_" style="fill:#3E6170;stroke:#FFFFFF;stroke-width:1.9466;stroke-miterlimit:10;" x1="-572.5" y1="43" x2="-572.5" y2="56.2"/>
</g>
<g id="XMLID_288_">
	<path id="XMLID_273_" style="fill:#FFFFFF;" d="M-447.9,56.9c0.1-0.9,0.4-1.7,0.4-2.6c0-3.3,0.1-6.5,0-9.8c0-1.8,0.4-3.6,2.3-3.6
		c1.4,0,3.1,1,3.9,2.1c0.8,1.1,0.9,2.9,1,4.3c0.1,3.6,0,7.2,0,10.9c0.3,0.1,0.7,0.1,1,0.2c0.3-0.7,0.8-1.3,0.8-2
		c0.1-2.8,0.2-5.5,0-8.3c-0.2-2.6,1-3.9,3.4-4.1c2.4-0.2,3.6,1.5,3.8,3.6c0.3,2.6,0.2,5.3,0.2,7.9c0,1.3,0,2.5,0,3.8
		c0.3,0.1,0.6,0.2,1,0.2c0.3-0.6,0.8-1.1,0.8-1.7c0.1-2.2,0.2-4.5,0-6.7c-0.2-2.3,1.2-3.4,3-3.4c1.2,0,2.7,0.9,3.5,1.9
		c0.7,0.8,0.7,2.3,0.7,3.5c0.1,7.2-0.2,14.5,0.3,21.7c0.5,6.7-4.8,15.7-13,18.1c-7.8,2.2-16.6-0.8-20.2-8.6
		c-3.6-7.7-10.2-11.6-16.3-16.3c-1.7-1.3-4.6-1.8-3-4.9c1.2-2.5,5.9-3.8,8.4-2.3c2.6,1.7,5.1,3.6,8,5.7c0-3.6,0-6.9,0-10.1
		c0-8.8-0.1-17.6-0.1-26.3c0-3.6,1.9-5.2,5.4-4.7c2.6,0.4,3.3,1.9,3.3,4.3c-0.1,8.1,0,16.1,0,24.2c0,1,0.2,2,0.3,2.9
		C-448.6,56.9-448.2,56.9-447.9,56.9z"/>
	<g id="XMLID_289_">
		<path id="XMLID_272_" style="fill:none;stroke:#FFFFFF;stroke-width:1.9657;stroke-miterlimit:10;" d="M-447.9,31.5
			c1.2-1.4,1.9-3.2,1.9-5.1c0-4.3-3.5-7.8-7.8-7.8s-7.8,3.5-7.8,7.8c0,2,0.7,3.8,1.9,5.1"/>
		<path id="XMLID_271_" style="fill:none;stroke:#FFFFFF;stroke-width:1.6074;stroke-miterlimit:10;" d="M-458.6,25.8"/>
		<path id="XMLID_270_" style="fill:none;stroke:#FFFFFF;stroke-width:0.7371;stroke-miterlimit:10;" d="M-447.9,40.2
			c5.3-2.3,9.1-7.6,9.1-13.7c0-8.3-6.7-14.9-14.9-14.9s-14.9,6.7-14.9,14.9c0,6.2,3.7,11.5,9.1,13.7"/>
		<path id="XMLID_269_" style="fill:none;stroke:#FFFFFF;stroke-width:1.2286;stroke-miterlimit:10;" d="M-459.6,36.5
			c-3.5-2-5.8-5.8-5.8-10.1c0-6.5,5.2-11.7,11.7-11.7c6.5,0,11.7,5.2,11.7,11.7c0,4.3-2.3,8.1-5.8,10.1"/>
	</g>
</g>
<g id="XMLID_323_">
	<radialGradient id="XMLID_719_" cx="-321.927" cy="52.9685" r="50" gradientUnits="userSpaceOnUse">
		<stop  offset="0" style="stop-color:#3E6170"/>
		<stop  offset="1" style="stop-color:#426788"/>
	</radialGradient>
	
		<circle id="XMLID_324_" style="fill:url(#XMLID_719_);stroke:#FFFFFF;stroke-width:2.1646;stroke-miterlimit:10;" cx="-321.9" cy="53" r="50"/>
</g>
<path id="XMLID_318_" style="fill:#FFFFFF;" d="M-324.6,63.5c-2.9-2.9-5.7-5.7-8.5-8.5c-0.4-0.4-0.2-0.7,0.1-1
	c4.8-4.8,9.6-9.6,14.4-14.4c5.8-5.7,11.6-11.3,17.4-17c0.8-0.8,1.7-1.5,2.5-2.3c0.9-0.8,2.5-1,3.7-0.4c1.2,0.6,1.9,2,1.7,3.3
	c-0.1,0.4-0.3,0.7-0.5,1.1c-2.4,3.3-4.8,6.7-7.4,9.9c-4.9,6.3-10,12.6-15,18.9c-2.5,3.2-5.1,6.3-7.7,9.5
	C-324.1,63-324.3,63.2-324.6,63.5z"/>
<path id="XMLID_320_" style="fill:#FFFFFF;" d="M-327.4,65.1c-0.7-0.6-1.2-1.2-1.8-1.8c-2-2-4.1-4.1-6.1-6.1c-0.3-0.3-0.5-0.5-1-0.2
	c-1.5,0.9-3.1,1.7-4.5,2.7c-4.2,3-6.6,7.2-7.4,12.2c-0.3,2.1-0.5,4.2-0.2,6.3c0.3,2.3,0.7,4.5,1.4,6.7c0.1,0.4,0.3,0.7,0.4,1
	c0.1,0,0.1-0.1,0.2-0.1c0.1-1,0.2-2,0.4-2.9c0.6-2.4,1.8-4.3,4.1-5.3c1.4-0.6,2.9-0.6,4.3-0.7c2-0.1,3.8-0.8,5.4-2
	c2.7-2.1,4.1-5.1,5.1-8.3C-326.8,66.2-326.8,65.6-327.4,65.1z M-337.8,64.2c0,0.4,0,0.8,0,1.2c0,0.3-0.1,0.7-0.3,1
	c-1,1.7-2,3.2-3.2,4.2c-0.7,0.5-1.3,0.7-1.8,0.6c-0.4-0.1-0.7-0.2-1.2,0c-0.8,0.3-1.5,1.3-2.2,2.6c-0.3,0.5-0.5,1.1-0.8,1.6
	c0,0,0,0-0.1,0c0-0.2,0.1-0.4,0.1-0.6c0.4-1.3,0.8-2.6,1.3-3.9c0.5-1.2,1-2.4,1.6-3.6c1.4-2.8,3-4.9,4.7-6.2
	c0.6-0.4,1.1-0.7,1.7-1.1c0.2-0.1,0.2,0,0.2,0.2C-337.8,61.5-337.8,62.9-337.8,64.2z"/>
<g id="XMLID_365_">
	<radialGradient id="XMLID_720_" cx="-196.927" cy="52.9685" r="50" gradientUnits="userSpaceOnUse">
		<stop  offset="0" style="stop-color:#3E6170"/>
		<stop  offset="1" style="stop-color:#426788"/>
	</radialGradient>
	
		<circle id="XMLID_366_" style="fill:url(#XMLID_720_);stroke:#FFFFFF;stroke-width:2.1646;stroke-miterlimit:10;" cx="-196.9" cy="53" r="50"/>
</g>
<g id="XMLID_393_">
	<path id="XMLID_364_" style="fill:#FFFFFF;" d="M-204.4,49c4.6,3.9,9.6,4.9,14.9,1.2c0.4-0.3,0.9-0.7,1.4-0.8
		c3.5-0.5,18.1,8.5,19,12.1c1.4,5.6,2.6,11.4,3.2,17.2c0.2,1.6-1.8,4.5-3.4,5c-17.8,6.4-35.8,6.2-53.7,0.3c-3.1-1-4-2.8-3.6-5.7
		c0.5-3.3,1-6.5,1.4-9.8c1-7.9,4.3-13.7,12.9-15.6C-209.8,52.4-207.5,50.5-204.4,49z"/>
	<path id="XMLID_394_" style="fill:#FFFFFF;" d="M-195.2,10.8c-5.9-1.3-13.2,2.5-14,8.2c-1.2,8.2-1.3,16.6,3.4,24.2
		c5.3,8.5,14,8.9,19.1,0.2c2.8-4.8,5.1-16.3,4.6-16.4C-181.4,16.3-183.9,13.2-195.2,10.8z M-194.8,40.8c-0.5,0.5-1.1,0.7-1.9,0.7
		c-0.8,0-1.5-0.2-1.9-0.7c-0.5-0.5-0.7-1.1-0.7-1.8c0-0.7,0.3-1.3,0.8-1.8c0.5-0.5,1.1-0.7,1.9-0.7c0.8,0,1.4,0.2,1.9,0.7
		c0.5,0.5,0.8,1.1,0.8,1.8C-194.1,39.7-194.4,40.3-194.8,40.8z M-189.7,26.1c-0.4,0.8-1.2,1.8-2.2,2.8l-1.3,1.3
		c-0.8,0.8-1.3,1.7-1.4,2.8l-0.1,1h-4.2c0-1.5,0.2-2.8,0.6-3.7c0.4-0.9,1.1-1.8,2.1-2.7c1-0.9,1.7-1.6,2-2.2
		c0.3-0.6,0.5-1.1,0.5-1.8c0-1.9-0.9-2.8-2.6-2.8c-0.8,0-1.5,0.3-2,0.8c-0.5,0.5-0.7,1.2-0.8,2.1h-4.8c0-2.1,0.7-3.8,2-4.9
		c1.3-1.2,3.2-1.8,5.5-1.8c2.3,0,4.1,0.6,5.4,1.7c1.3,1.1,1.9,2.7,1.9,4.8C-189.1,24.4-189.3,25.2-189.7,26.1z"/>
</g>
<g id="XMLID_414_">
	<radialGradient id="XMLID_721_" cx="-71.927" cy="52.9685" r="50" gradientUnits="userSpaceOnUse">
		<stop  offset="0" style="stop-color:#3E6170"/>
		<stop  offset="1" style="stop-color:#426788"/>
	</radialGradient>
	
		<circle id="XMLID_415_" style="fill:url(#XMLID_721_);stroke:#FFFFFF;stroke-width:2.1646;stroke-miterlimit:10;" cx="-71.9" cy="53" r="50"/>
</g>
<g id="XMLID_432_">
	<path id="XMLID_430_" style="fill:#FFFFFF;" d="M-95,60.5c0.5,0.5,0.9,1.1,1.4,1.6c1.7,1.7,3.4,3.4,5.1,5.1c0.2,0.2,0.4,0.6,0.4,1
		c0,2.4,0,4.9,0,7.3c0,0.9,0.2,1.1,1.1,1.1c13,0,25.9,0,38.9,0c0.9,0,1.1-0.2,1.1-1.1c0-11.3,0-22.6,0-34c0-0.9-0.2-1.1-1.2-1.1
		c-1.9,0-3.7,0-5.6-0.2c-3.1-0.2-4.9-2-5.2-5.1c-0.1-1.9-0.1-3.8-0.2-5.6c0-0.9-0.2-1.2-1.1-1.2c-8.9,0-17.8,0-26.7,0
		c-0.9,0-1.1,0.2-1.1,1.1c0,3.9,0,7.8,0,11.7c0,0.2,0,0.5,0,0.7c-0.1,0.1-0.2,0.1-0.2,0.2c-0.9-0.9-1.8-1.9-2.7-2.8
		c-1.3-1.3-2.6-2.6-3.9-3.9c-0.2-0.2-0.4-0.6-0.4-1c0-1.9,0-3.9,0-5.8c0-4.2,3.1-7.4,7.3-7.4c10.1,0,20.3,0,30.4,0
		c1.2,0,2.1,0.4,2.9,1.2c4.5,4.6,9,9.1,13.5,13.6c0.8,0.8,1.2,1.8,1.2,2.9c0,10.2,0,20.5,0,30.7c0,2.2,0,4.4,0,6.6
		c0,4.4-3.1,7.5-7.5,7.5c-13.4,0-26.8,0-40.2,0c-4.6,0-7.7-3.1-7.6-7.7c0-4.8,0-9.5,0-14.3c0-0.4,0-0.7,0-1.1
		C-95.1,60.6-95.1,60.6-95,60.5z"/>
	<path id="XMLID_439_" style="fill:#FFFFFF;" d="M-105.1,44.6c2.3-2.3,4.5-4.5,6.9-6.9c1.4,1.4,2.8,2.9,4.3,4.4
		c5.2,5.2,10.4,10.4,15.6,15.6c0.7,0.8,1.4,1.7,1.9,2.6c1.8,3.7,3.6,7.4,5.4,11.1c-0.1,0.1-0.1,0.1-0.2,0.2c-0.8-0.3-1.5-0.6-2.3-1
		c-3.2-1.5-6.5-3-9.6-4.7c-1.5-0.8-2.7-2.1-3.9-3.3c-5.9-5.9-11.8-11.8-17.7-17.7C-104.9,44.8-105,44.7-105.1,44.6z M-83.2,63.3
		c1,0.6,2,1.1,3,1.7c1.5,0.8,1.5,0.8,2.7-0.5c0.2-0.2,0.2-0.6,0.1-0.8c-0.6-1.1-1.2-2.2-1.8-3.3c-0.1-0.2-0.3-0.4-0.5-0.6
		C-80.9,60.9-82,62-83.2,63.3z"/>
	<path id="XMLID_413_" style="fill:#FFFFFF;" d="M-81.9,48c0.5-0.1,1-0.3,1.5-0.3c6.9,0,13.8,0,20.6,0c1.8,0,3.5,0,5.3,0
		c1.6,0,2.7,1,2.7,2.3c0,1.4-1.1,2.4-2.7,2.4c-7.5,0-15,0-22.5,0c-0.3,0-0.6,0-0.8-0.2c-1.4-1.3-2.8-2.7-4.1-4
		C-82,48.2-82,48.1-81.9,48z"/>
	<path id="XMLID_412_" style="fill:#FFFFFF;" d="M-73.4,57.3c3.2,0,6.4,0,9.6,0c3.1,0,6.2,0,9.2,0c1.1,0,2,0.4,2.5,1.5
		c0.7,1.6-0.5,3.3-2.3,3.3c-2.9,0-5.8,0-8.6,0c-2.5,0-4.9,0-7.4,0c-0.2,0-0.6-0.1-0.7-0.3C-71.8,60.4-72.6,58.9-73.4,57.3z"/>
	<path id="XMLID_411_" style="fill:#FFFFFF;" d="M-73.5,40.4c-2.4,0-4.8,0-7.1,0c-1.1,0-2-0.6-2.3-1.6c-0.3-1-0.1-2,0.8-2.6
		c0.4-0.3,1-0.5,1.5-0.5c4.8,0,9.5,0,14.3,0c1.4,0,2.5,1.1,2.5,2.4c0,1.3-1.1,2.3-2.5,2.3C-68.8,40.4-71.2,40.4-73.5,40.4z"/>
	<path id="XMLID_410_" style="fill:#FFFFFF;" d="M-100.8,35.5c-2.2,2.2-4.4,4.4-6.6,6.6c-1.1-1.1-2.4-2.2-3.5-3.4
		c-1.6-1.8-1.5-4.6,0.2-6.4c1.7-1.8,4.5-2.1,6.3-0.5C-103.1,32.9-102,34.3-100.8,35.5z"/>
	<path id="XMLID_409_" style="fill:#FFFFFF;" d="M-66.8,71.7c-0.6-1.6-1.2-3.1-1.8-4.7c1.4,0,2.8,0,4.1,0c3.4,0,6.7,0,10.1,0
		c1.3,0,2.1,0.6,2.4,1.8c0.3,1-0.1,2-1,2.6c-0.4,0.2-0.8,0.4-1.3,0.4C-58.4,71.8-62.6,71.8-66.8,71.7
		C-66.8,71.7-66.8,71.7-66.8,71.7z"/>
</g>
<g id="XMLID_557_">
	<radialGradient id="XMLID_722_" cx="53.073" cy="52.9685" r="50" gradientUnits="userSpaceOnUse">
		<stop  offset="0" style="stop-color:#3E6170"/>
		<stop  offset="1" style="stop-color:#426788"/>
	</radialGradient>
	
		<circle id="XMLID_558_" style="fill:url(#XMLID_722_);stroke:#FFFFFF;stroke-width:2.1646;stroke-miterlimit:10;" cx="53.1" cy="53" r="50"/>
</g>
<path id="portfolio" style="fill:#FFFFFF;" d="M87.3,31.2c0-0.8-0.7-1.6-1.5-1.7l-20-2.3v-9.3c0,0-4-2.3-9.1-2.8
	c-5.4-0.6-9.1,0.6-9.1,0.6v3.6c-4.9-0.4-8.2,0.7-8.2,0.7v4.2l-11.1-1.3c-0.8-0.1-1.5,0.5-1.5,1.3v2l12.6,1.5v1.8l-19.2-2.3
	c-0.8-0.1-1.5,0.5-1.5,1.3v40.3c0,2.3,1.6,5.1,5,5.5l53.8,6.3c0.1,0,0.2,0,0.3,0l0,0c0,0,7,0.9,9.2-6.5l0,0c0.1-0.4,0.2-0.8,0.2-1.4
	V31.2z M56.8,17.7c3.7,0.4,6.3,2,6.3,2v7.1l-5.4-0.6v-4.1c0,0-3.1-1.8-7.2-2.5v-1.3C50.5,18.2,53.1,17.3,56.8,17.7z M50.5,22.3
	c2.7,0.6,4.4,1.7,4.4,1.7v1.9l-4.4-0.5V22.3z M42.3,22.4c0,0,2.2-0.7,5.4-0.5V25l-5.4-0.6V22.4z M42.3,27.9l12.6,1.5v1.8l-12.6-1.5
	V27.9z M80.3,75.6c-0.6,0.2-1.1-0.1-1.1-0.1l0,0v-40c0-0.8-0.7-1.6-1.5-1.7l-20-2.4v-1.8l22.3,2.6c0.8,0.1,1.5,0.8,1.5,1.7v40.7
	C81.4,74.7,81.2,75.3,80.3,75.6z"/>
<g id="XMLID_671_">
	<radialGradient id="XMLID_723_" cx="303.073" cy="52.9685" r="50" gradientUnits="userSpaceOnUse">
		<stop  offset="0" style="stop-color:#3E6170"/>
		<stop  offset="1" style="stop-color:#426788"/>
	</radialGradient>
	
		<circle id="XMLID_672_" style="display:none;fill:url(#XMLID_723_);stroke:#FFFFFF;stroke-width:2.1646;stroke-miterlimit:10;" cx="303.1" cy="53" r="50"/>
	<radialGradient id="XMLID_724_" cx="303.073" cy="52.5" r="50" gradientUnits="userSpaceOnUse">
		<stop  offset="0" style="stop-color:#3E6170"/>
		<stop  offset="1" style="stop-color:#426788"/>
	</radialGradient>
	<path id="XMLID_685_" style="fill:url(#XMLID_724_);stroke:#FFFFFF;stroke-width:3;stroke-miterlimit:10;" d="M348.1,102.5h-90
		c-2.8,0-5-2.2-5-5v-90c0-2.8,2.2-5,5-5h90c2.8,0,5,2.2,5,5v90C353.1,100.3,350.8,102.5,348.1,102.5z"/>
</g>
<path id="portfolio_2_" style="fill:#FFFFFF;" d="M337.3,31.2c0-0.8-0.7-1.6-1.5-1.7l-20-2.3v-9.3c0,0-4-2.3-9.1-2.8
	c-5.4-0.6-9.1,0.6-9.1,0.6v3.6c-4.9-0.4-8.2,0.7-8.2,0.7v4.2l-11.1-1.3c-0.8-0.1-1.5,0.5-1.5,1.3v2l12.6,1.5v1.8l-19.2-2.3
	c-0.8-0.1-1.5,0.5-1.5,1.3v40.3c0,2.3,1.6,5.1,5,5.5l53.8,6.3c0.1,0,0.2,0,0.3,0l0,0c0,0,7,0.9,9.2-6.5l0,0c0.1-0.4,0.2-0.8,0.2-1.4
	V31.2z M306.8,17.7c3.7,0.4,6.3,2,6.3,2v7.1l-5.4-0.6v-4.1c0,0-3.1-1.8-7.2-2.5v-1.3C300.5,18.2,303.1,17.3,306.8,17.7z M300.5,22.3
	c2.7,0.6,4.4,1.7,4.4,1.7v1.9l-4.4-0.5V22.3z M292.3,22.4c0,0,2.2-0.7,5.4-0.5V25l-5.4-0.6V22.4z M292.3,27.9l12.6,1.5v1.8
	l-12.6-1.5V27.9z M330.3,75.6c-0.6,0.2-1.1-0.1-1.1-0.1l0,0v-40c0-0.8-0.7-1.6-1.5-1.7l-20-2.4v-1.8l22.3,2.6
	c0.8,0.1,1.5,0.8,1.5,1.7v40.7C331.4,74.7,331.2,75.3,330.3,75.6z"/>
<radialGradient id="portfolio_3_" cx="178.073" cy="47.7106" r="33.5817" gradientUnits="userSpaceOnUse">
	<stop  offset="0" style="stop-color:#3E6170"/>
	<stop  offset="1" style="stop-color:#426788"/>
</radialGradient>
<path id="portfolio_1_" style="fill:url(#portfolio_3_);" d="M212.3,31.2c0-0.8-0.7-1.6-1.5-1.7l-20-2.3v-9.3c0,0-4-2.3-9.1-2.8
	c-5.4-0.6-9.1,0.6-9.1,0.6v3.6c-4.9-0.4-8.2,0.7-8.2,0.7v4.2l-11.1-1.3c-0.8-0.1-1.5,0.5-1.5,1.3v2l12.6,1.5v1.8l-19.2-2.3
	c-0.8-0.1-1.5,0.5-1.5,1.3v40.3c0,2.3,1.6,5.1,5,5.5l53.8,6.3c0.1,0,0.2,0,0.3,0l0,0c0,0,7,0.9,9.2-6.5l0,0c0.1-0.4,0.2-0.8,0.2-1.4
	V31.2z M181.8,17.7c3.7,0.4,6.3,2,6.3,2v7.1l-5.4-0.6v-4.1c0,0-3.1-1.8-7.2-2.5v-1.3C175.5,18.2,178.1,17.3,181.8,17.7z M175.5,22.3
	c2.7,0.6,4.4,1.7,4.4,1.7v1.9l-4.4-0.5V22.3z M167.3,22.4c0,0,2.2-0.7,5.4-0.5V25l-5.4-0.6V22.4z M167.3,27.9l12.6,1.5v1.8
	l-12.6-1.5V27.9z M205.3,75.6c-0.6,0.2-1.1-0.1-1.1-0.1l0,0v-40c0-0.8-0.7-1.6-1.5-1.7l-20-2.4v-1.8l22.3,2.6
	c0.8,0.1,1.5,0.8,1.5,1.7v40.7C206.4,74.7,206.2,75.3,205.3,75.6z"/>
<g id="XMLID_699_">
</g>
<g id="XMLID_700_">
</g>
<g id="XMLID_701_">
</g>
<g id="XMLID_702_">
</g>
<g id="XMLID_703_">
</g>
<g id="XMLID_704_">
</g>
<g id="XMLID_705_">
</g>
<g id="XMLID_706_">
</g>
<g id="XMLID_707_">
</g>
<g id="XMLID_708_">
</g>
<g id="XMLID_709_">
</g>
<g id="XMLID_710_">
</g>
<g id="XMLID_711_">
</g>
<g id="XMLID_712_">
</g>
<g id="XMLID_713_">
</g>
</svg>
