<?xml version="1.0" encoding="utf-8"?>
<!-- Generator: Adobe Illustrator 19.0.0, SVG Export Plug-In . SVG Version: 6.00 Build 0)  -->
<svg version="1.1" id="Layer_1" xmlns="http://www.w3.org/2000/svg" xmlns:xlink="http://www.w3.org/1999/xlink" x="0px" y="0px"
	 viewBox="0 0 262 72.5" style="enable-background:new 0 0 262 72.5;" xml:space="preserve">
<g id="XMLID_25_">
	<path id="XMLID_62_" style="fill:#3E6170;stroke:#FAFBF4;stroke-width:10;stroke-miterlimit:10;" d="M-50.7,150.1h-103.2
		c-11.2,0-20.2-9.1-20.2-20.2V26.7c0-11.2,9.1-20.2,20.2-20.2h103.2c11.2,0,20.2,9.1,20.2,20.2v103.2
		C-30.5,141-39.5,150.1-50.7,150.1z"/>
	<g id="XMLID_57_">
		<path id="XMLID_59_" style="fill:#FAFBF4;" d="M-118,18.9v44.5h-1.9c-21.4,0-38.7,17.3-38.7,38.7v0c0,20.5,16.6,37.2,37.2,37.2
			h3.5h18.3h3.3V18.9H-118z M-117,120.1c0,0.6-0.5,1.1-1.1,1.1h-4.6c-9.9,0-18-8.1-18-18v0c0-10.7,8.7-19.4,19.4-19.4h3.2
			c0.6,0,1.1,0.5,1.1,1.1V120.1z"/>
		<path id="XMLID_58_" style="fill:#FAFBF4;" d="M-56.3,83.8c1.7,0,3-1.3,3-3V66.4c0-1.7-1.3-3-3-3h-12.2V51.8c0-1.7-1.3-3-3-3
			h-15.5c-1.7,0-3,1.3-3,3v87.5h1.2h17.3h3c6.3,0,15.2-5.1,15.2-11.3v-9.7c0-2.4-2.7-3.8-4.7-2.5c-4.5,3-8.4,4-10.5,4.3V83.8H-56.3z
			"/>
	</g>
	<g id="XMLID_34_">
		<path id="XMLID_54_" style="fill:#FAFBF4;" d="M-165.3,168c1.3,0,2.6,0.4,3.8,1.2v-9.3l2.2-0.2v24.7h-0.2
			c-0.7,0.3-1.9,0.5-3.5,0.7s-2.8,0.2-3.4,0.2c-1.9,0-3.5-0.5-4.7-1.4c-1.7-1.3-2.6-3.5-2.6-6.5c0-3,0.8-5.3,2.4-6.9
			C-169.7,168.8-167.7,168-165.3,168z M-161.5,170.6c-1.1-0.4-2.2-0.6-3.3-0.6c-2.1,0-3.7,0.6-4.9,1.9c-1.2,1.3-1.8,3.1-1.8,5.4
			s0.6,4,1.9,4.9c0.9,0.7,2.1,1.1,3.5,1.1s2.9-0.1,4.6-0.3V170.6z"/>
		<path id="XMLID_51_" style="fill:#FAFBF4;" d="M-155.8,170c2.5-1.2,4.6-1.9,6.5-1.9c1.5,0,2.6,0.2,3.4,0.6c0.8,0.4,1.5,0.9,2,1.6
			c0.5,0.7,0.7,1.6,0.7,2.8v12.2h-2.2v-1.3c-3.1,1-5.1,1.4-6,1.4c0,0-0.1,0-0.1,0c-2,0-3.4-0.6-4.2-1.9c-0.3-0.5-0.4-0.9-0.5-1.3
			c0-0.4-0.1-0.8-0.1-1.1c0-0.8,0.3-1.5,1-2.2c0.6-0.6,1.4-1.1,2.3-1.3c1.5-0.4,4-0.7,7.5-1v-2.8c0-2.5-1.3-3.7-3.9-3.7
			c-1.8,0-3.8,0.5-5.9,1.6L-155.8,170z M-154.1,181.3c0,1.6,1.1,2.4,3.4,2.4c1.8,0,3.6-0.4,5.3-1.2v-4.9c-3.5,0.5-5.7,0.9-6.6,1.2
			C-153.4,179.3-154.1,180.1-154.1,181.3z"/>
		<path id="XMLID_49_" style="fill:#FAFBF4;" d="M-137.6,170c1.7-1.2,3.3-1.9,4.8-2c1.4,0,2.4,0.2,3.2,0.5s1.4,0.8,1.9,1.4
			c0.5,0.6,0.7,1.5,0.7,2.6v12.5h-2.2v-11.9c0-0.8-0.2-1.5-0.5-1.9c-0.7-0.8-1.8-1.3-3.3-1.3c-1.4,0.1-2.9,0.5-4.5,1.4v13.7h-2.2
			v-17l2.2-0.2V170z"/>
		<path id="XMLID_47_" style="fill:#FAFBF4;" d="M-104.7,184.5c-0.4,0.4-1.1,0.6-2.2,0.6c-1.5,0-2.5-0.4-3-1.2
			c-0.9-0.8-1.3-2-1.3-3.4v-10.5h-1.9l0.3-2h1.6v-3.4l2.2-0.2v3.6h3.9v2h-3.9v11c0,1.3,0.7,2,2,2c0.6,0,1.2-0.1,1.9-0.4
			L-104.7,184.5z"/>
		<path id="XMLID_44_" style="fill:#FAFBF4;" d="M-100.6,177.3c0,4,1.9,6,5.7,6c1.6,0,3.1-0.2,4.4-0.6c0.3-0.1,0.6-0.2,0.7-0.3
			l0.5,1.8c-0.8,0.5-2.2,0.8-4.3,1c-0.6,0-1.2,0.1-1.9,0.1c-1.9,0-3.5-0.5-4.8-1.4c-1.7-1.3-2.6-3.4-2.6-6.5c0-3,0.8-5.3,2.4-6.9
			c1.6-1.6,3.5-2.4,5.7-2.4c2.2,0,3.9,0.7,5.1,2.2c0.9,1.2,1.3,2.7,1.3,4.6c0,0.5,0,0.9-0.1,1.4h-12.1c0,0.2,0,0.4,0,0.6V177.3z
			 M-94.6,170.1c-1.4,0-2.6,0.4-3.6,1.3c-1,0.8-1.7,1.9-2.1,3.3h9.9c-0.1-2.5-1.1-4-2.9-4.4C-93.7,170.2-94.2,170.1-94.6,170.1z"/>
		<path id="XMLID_42_" style="fill:#FAFBF4;" d="M-74.6,170.4c-0.9-0.3-1.9-0.4-2.9-0.4c-2,0-3.5,0.6-4.7,1.9
			c-1.2,1.3-1.8,3.1-1.8,5.4c0,4,1.9,6,5.6,6c1.5,0,3-0.2,4.6-0.7c0.3-0.1,0.5-0.2,0.6-0.2l0.5,1.8c-0.8,0.5-2.2,0.8-4.3,1
			c-0.6,0-1.2,0.1-1.9,0.1c-1.9,0-3.5-0.5-4.8-1.4c-1.7-1.3-2.6-3.5-2.6-6.5c0-3,0.8-5.3,2.4-6.9c1.6-1.6,3.7-2.4,6.3-2.4
			c0.8,0,1.7,0.1,2.6,0.3c0.9,0.2,1.6,0.5,2.1,1v4.4l-1.7,0.2L-74.6,170.4z"/>
		<path id="XMLID_40_" style="fill:#FAFBF4;" d="M-59.6,170.4c-0.8-0.3-1.9-0.4-3.3-0.4c-1.4,0-2.5,0.2-3.3,0.7s-1.2,1.1-1.2,1.9
			c0,0.7,0.2,1.3,0.7,1.6c0.5,0.3,1,0.6,1.7,0.9c0.7,0.2,1.4,0.5,2.2,0.7s1.5,0.5,2.2,0.9c1.6,0.8,2.4,2,2.4,3.6s-0.5,2.8-1.6,3.7
			c-1.1,0.9-2.7,1.3-4.8,1.3c-1.1,0-2.1-0.1-3.1-0.3c-1-0.2-1.7-0.5-2.3-0.9l0.7-1.8c0.5,0.5,1.6,0.8,3.2,1c0.5,0.1,1,0.1,1.5,0.1
			c1.2,0,2.2-0.2,3-0.7c0.8-0.5,1.2-1.2,1.2-2.2c0-0.7-0.2-1.2-0.7-1.6c-0.5-0.4-1-0.7-1.7-1c-0.7-0.3-1.4-0.5-2.2-0.7
			c-0.8-0.2-1.5-0.5-2.2-0.8c-0.7-0.3-1.2-0.8-1.7-1.3c-0.5-0.5-0.7-1.3-0.7-2.2c0-1.5,0.6-2.6,1.7-3.5s2.6-1.3,4.6-1.3
			c0.5,0,1,0,1.5,0.1s1,0.1,1.4,0.2l1.4,0.2L-59.6,170.4z"/>
		<path id="XMLID_37_" style="fill:#FAFBF4;" d="M-55.4,180.8c-0.4-1.1-0.6-2.4-0.6-3.8c0-2.8,0.8-5,2.3-6.6
			c1.6-1.6,3.5-2.4,5.9-2.4c3.7,0,6.1,1.5,7.3,4.5c0.4,1.1,0.6,2.4,0.6,3.8c0,2.8-0.8,5-2.3,6.6c-1.6,1.6-3.5,2.4-5.9,2.4
			C-51.7,185.3-54.2,183.8-55.4,180.8z M-53.8,176.8c0,2.1,0.5,3.7,1.6,4.8s2.5,1.7,4.2,1.7s3.1-0.6,4.2-1.8s1.7-2.9,1.7-4.9
			s-0.5-3.7-1.6-4.8c-1.1-1.1-2.5-1.7-4.2-1.7c-1.7,0-3.1,0.6-4.3,1.8C-53.2,173-53.8,174.7-53.8,176.8z"/>
		<path id="XMLID_35_" style="fill:#FAFBF4;" d="M-34.9,170c1.7-1.2,3.3-1.9,4.8-2c1.4,0,2.4,0.2,3.2,0.5s1.4,0.8,1.9,1.4
			c0.5,0.6,0.7,1.5,0.7,2.6v12.5h-2.2v-11.9c0-0.8-0.2-1.5-0.5-1.9c-0.7-0.8-1.8-1.3-3.3-1.3c-1.4,0.1-2.9,0.5-4.5,1.4v13.7h-2.2
			v-17l2.2-0.2V170z"/>
	</g>
</g>
<g id="XMLID_15_">
	<path id="XMLID_74_" style="fill:#3E6170;stroke:#FAFBF4;stroke-width:4.1612;stroke-miterlimit:10;" d="M57.2,66.2H14.3
		c-4.7,0-8.4-3.8-8.4-8.4V14.9c0-4.7,3.8-8.4,8.4-8.4h42.9c4.7,0,8.4,3.8,8.4,8.4v42.9C65.7,62.5,61.9,66.2,57.2,66.2z"/>
	<g id="XMLID_69_">
		<path id="XMLID_71_" style="fill:#FAFBF4;" d="M29.3,11.6v18.5h-0.8c-8.9,0-16.1,7.2-16.1,16.1v0c0,8.5,6.9,15.5,15.5,15.5h1.4
			h7.6h1.4V11.6H29.3z M29.6,53.8c0,0.3-0.2,0.5-0.5,0.5h-1.9c-4.1,0-7.5-3.4-7.5-7.5v0c0-4.4,3.6-8.1,8.1-8.1h1.3
			c0.3,0,0.5,0.2,0.5,0.5V53.8z"/>
		<path id="XMLID_70_" style="fill:#FAFBF4;" d="M54.9,38.7c0.7,0,1.3-0.6,1.3-1.3v-6c0-0.7-0.6-1.3-1.3-1.3h-5.1v-4.8
			c0-0.7-0.6-1.3-1.3-1.3h-6.5c-0.7,0-1.3,0.6-1.3,1.3v36.4h0.5h7.2h1.3c2.6,0,6.3-2.1,6.3-4.7v-4c0-1-1.1-1.6-2-1
			c-1.9,1.3-3.5,1.7-4.4,1.8V38.7H54.9z"/>
	</g>
</g>
<g id="XMLID_16_">
	<path id="XMLID_66_" style="fill:#FAFBF4;" d="M87.7,29.6c1.6,0,3.1,0.5,4.5,1.4V20l2.6-0.2v29h-0.2c-0.8,0.3-2.2,0.6-4.1,0.8
		c-1.9,0.2-3.3,0.3-4,0.3c-2.2,0-4.1-0.6-5.5-1.7c-2-1.5-3.1-4.1-3.1-7.6c0-3.5,0.9-6.2,2.8-8.1C82.5,30.5,84.9,29.6,87.7,29.6z
		 M92.1,32.7c-1.3-0.5-2.6-0.8-3.9-0.8c-2.4,0-4.4,0.7-5.8,2.2c-1.4,1.5-2.1,3.6-2.1,6.3s0.8,4.7,2.3,5.8c1.1,0.8,2.5,1.3,4.1,1.3
		c1.7,0,3.4-0.1,5.4-0.4V32.7z"/>
	<path id="XMLID_63_" style="fill:#FAFBF4;" d="M98.8,31.9c2.9-1.4,5.4-2.2,7.6-2.3c1.7,0,3.1,0.2,4,0.7c0.9,0.4,1.7,1,2.3,1.8
		c0.6,0.8,0.9,1.9,0.9,3.3v14.3H111v-1.5c-3.6,1.1-6,1.7-7,1.7c-0.1,0-0.1,0-0.1,0c-2.4,0-4-0.7-4.9-2.2c-0.3-0.5-0.5-1-0.5-1.6
		c0-0.5-0.1-0.9-0.1-1.3c0-1,0.4-1.8,1.1-2.6c0.7-0.8,1.6-1.3,2.7-1.5c1.8-0.5,4.7-0.8,8.8-1.2v-3.2c0-2.9-1.5-4.3-4.5-4.3
		c-2.1,0-4.4,0.6-6.9,1.9L98.8,31.9z M100.8,45.2c0,1.9,1.3,2.9,3.9,2.9c2.1,0,4.2-0.5,6.3-1.4V41c-4.1,0.6-6.7,1-7.7,1.4
		C101.6,42.9,100.8,43.8,100.8,45.2z"/>
	<path id="XMLID_32_" style="fill:#FAFBF4;" d="M120.2,32c2-1.5,3.9-2.2,5.7-2.3c1.6,0,2.9,0.2,3.7,0.6c0.9,0.4,1.6,1,2.2,1.7
		c0.6,0.7,0.9,1.8,0.9,3.1v14.7H130v-14c0-1-0.2-1.7-0.6-2.3c-0.8-1-2.1-1.5-3.9-1.5c-1.7,0.1-3.4,0.6-5.3,1.6v16.1h-2.6V29.8
		l2.6-0.2V32z"/>
	<path id="XMLID_30_" style="fill:#FAFBF4;" d="M158.8,49c-0.5,0.5-1.3,0.7-2.6,0.7c-1.8,0-2.9-0.5-3.5-1.4c-1-1-1.6-2.3-1.6-4V32.1
		h-2.2l0.4-2.3h1.9v-3.9l2.6-0.2v4.2h4.6v2.3h-4.6V45c0,1.5,0.8,2.3,2.4,2.3c0.7,0,1.4-0.2,2.2-0.5L158.8,49z"/>
	<path id="XMLID_27_" style="fill:#FAFBF4;" d="M163.5,40.5c0,4.7,2.2,7,6.7,7c1.9,0,3.6-0.3,5.2-0.8c0.4-0.1,0.7-0.2,0.8-0.3
		l0.6,2.1c-0.9,0.6-2.6,1-5.1,1.2c-0.7,0.1-1.4,0.1-2.2,0.1c-2.2,0-4.1-0.6-5.6-1.7c-2-1.5-3.1-4-3.1-7.6c0-3.5,0.9-6.2,2.8-8.1
		c1.8-1.9,4.1-2.8,6.7-2.8c2.6,0,4.6,0.8,5.9,2.5c1,1.4,1.5,3.1,1.5,5.4c0,0.5,0,1.1-0.1,1.7h-14.2c0,0.2,0,0.4,0,0.7V40.5z
		 M170.6,32.1c-1.6,0-3.1,0.5-4.2,1.5c-1.2,1-2,2.3-2.4,3.8h11.6c-0.1-2.9-1.3-4.7-3.4-5.1C171.6,32.2,171.1,32.1,170.6,32.1z"/>
	<path id="XMLID_24_" style="fill:#FAFBF4;" d="M194,32.5c-1.1-0.3-2.2-0.5-3.3-0.5c-2.3,0-4.2,0.7-5.6,2.2
		c-1.4,1.5-2.1,3.6-2.1,6.3c0,4.7,2.2,7.1,6.6,7.1c1.8,0,3.6-0.3,5.4-0.9c0.4-0.1,0.6-0.2,0.7-0.2l0.6,2.2c-0.9,0.6-2.6,1-5.1,1.2
		c-0.7,0.1-1.4,0.1-2.2,0.1c-2.3,0-4.1-0.6-5.6-1.7c-2-1.5-3.1-4.1-3.1-7.6c0-3.5,0.9-6.2,2.8-8.1c1.9-1.9,4.3-2.8,7.3-2.8
		c1,0,2,0.1,3,0.4c1.1,0.3,1.9,0.6,2.5,1.2v5.2l-2,0.3L194,32.5z"/>
	<path id="XMLID_22_" style="fill:#FAFBF4;" d="M211.6,32.4c-1-0.3-2.3-0.5-3.9-0.5c-1.6,0-2.9,0.3-3.8,0.9
		c-0.9,0.6-1.4,1.3-1.4,2.2c0,0.9,0.3,1.5,0.8,1.9c0.5,0.4,1.2,0.7,2,1c0.8,0.3,1.7,0.6,2.6,0.8c0.9,0.3,1.8,0.6,2.6,1
		c1.9,1,2.8,2.4,2.8,4.3c0,1.9-0.6,3.3-1.9,4.3c-1.3,1-3.2,1.5-5.6,1.5c-1.2,0-2.4-0.1-3.6-0.4c-1.2-0.3-2-0.6-2.6-1.1l0.9-2.1
		c0.6,0.5,1.8,0.9,3.7,1.2c0.6,0.1,1.2,0.1,1.8,0.1c1.4,0,2.5-0.3,3.5-0.9c0.9-0.6,1.4-1.4,1.4-2.6c0-0.8-0.3-1.4-0.8-1.9
		c-0.5-0.5-1.2-0.8-2-1.1c-0.8-0.3-1.7-0.6-2.6-0.8c-0.9-0.2-1.8-0.6-2.6-0.9c-0.8-0.4-1.5-0.9-2-1.5c-0.5-0.6-0.8-1.5-0.8-2.5
		c0-1.7,0.7-3.1,2-4.1c1.3-1,3.1-1.6,5.3-1.6c0.6,0,1.1,0,1.7,0.1c0.6,0.1,1.1,0.1,1.6,0.2l1.7,0.3L211.6,32.4z"/>
	<path id="XMLID_19_" style="fill:#FAFBF4;" d="M216.6,44.6c-0.5-1.3-0.7-2.8-0.7-4.5c0-3.3,0.9-5.8,2.7-7.7
		c1.8-1.9,4.1-2.8,6.9-2.8c4.3,0,7.2,1.8,8.5,5.3c0.5,1.3,0.8,2.8,0.8,4.5c0,3.3-0.9,5.8-2.7,7.7c-1.8,1.9-4.1,2.8-6.9,2.8
		C220.9,49.9,218,48.1,216.6,44.6z M218.5,39.9c0,2.4,0.6,4.3,1.9,5.7c1.3,1.3,2.9,2,4.9,2s3.7-0.7,5-2.1c1.3-1.4,2-3.4,2-5.8
		s-0.6-4.3-1.9-5.7c-1.2-1.3-2.9-2-4.9-2c-2,0-3.7,0.7-5,2.1C219.2,35.5,218.5,37.4,218.5,39.9z"/>
	<path id="XMLID_17_" style="fill:#FAFBF4;" d="M240.6,32c2-1.5,3.9-2.2,5.7-2.3c1.6,0,2.9,0.2,3.7,0.6c0.9,0.4,1.6,1,2.2,1.7
		c0.6,0.7,0.9,1.8,0.9,3.1v14.7h-2.6v-14c0-1-0.2-1.7-0.6-2.3c-0.8-1-2.1-1.5-3.9-1.5c-1.7,0.1-3.4,0.6-5.3,1.6v16.1H238V29.8
		l2.6-0.2V32z"/>
</g>
<g id="XMLID_156_">
</g>
<g id="XMLID_157_">
</g>
<g id="XMLID_158_">
</g>
<g id="XMLID_176_">
</g>
<g id="XMLID_177_">
</g>
<g id="XMLID_178_">
</g>
<g id="XMLID_179_">
</g>
<g id="XMLID_180_">
</g>
<g id="XMLID_181_">
</g>
<g id="XMLID_182_">
</g>
<g id="XMLID_183_">
</g>
<g id="XMLID_184_">
</g>
<g id="XMLID_185_">
</g>
<g id="XMLID_186_">
</g>
<g id="XMLID_187_">
</g>
</svg>
