<?xml version="1.0" encoding="utf-8"?>
<!-- Generator: Adobe Illustrator 19.0.0, SVG Export Plug-In . SVG Version: 6.00 Build 0)  -->
<svg version="1.1" id="Layer_1" xmlns="http://www.w3.org/2000/svg" xmlns:xlink="http://www.w3.org/1999/xlink" x="0px" y="0px"
	 viewBox="-348 244.5 262 72.5" style="enable-background:new -348 244.5 262 72.5;" xml:space="preserve">
<style type="text/css">
	.st0{fill:#3E6170;stroke:#FAFBF4;stroke-width:4.1612;stroke-miterlimit:10;}
	.st1{fill:#FAFBF4;}
</style>
<g id="XMLID_15_">
	<path id="XMLID_74_" class="st0" d="M-290.8,310.7h-42.9c-4.7,0-8.4-3.8-8.4-8.4v-42.9c0-4.7,3.8-8.4,8.4-8.4h42.9
		c4.7,0,8.4,3.8,8.4,8.4v42.9C-282.3,307-286.1,310.7-290.8,310.7z"/>
	<g id="XMLID_69_">
		<path id="XMLID_71_" class="st1" d="M-318.7,256.1v18.5h-0.8c-8.9,0-16.1,7.2-16.1,16.1l0,0c0,8.5,6.9,15.5,15.5,15.5h1.4h7.6h1.4
			v-50.1H-318.7z M-318.4,298.3c0,0.3-0.2,0.5-0.5,0.5h-1.9c-4.1,0-7.5-3.4-7.5-7.5l0,0c0-4.4,3.6-8.1,8.1-8.1h1.3
			c0.3,0,0.5,0.2,0.5,0.5V298.3z"/>
		<path id="XMLID_70_" class="st1" d="M-293.1,283.2c0.7,0,1.3-0.6,1.3-1.3v-6c0-0.7-0.6-1.3-1.3-1.3h-5.1v-4.8
			c0-0.7-0.6-1.3-1.3-1.3h-6.5c-0.7,0-1.3,0.6-1.3,1.3v36.4h0.5h7.2h1.3c2.6,0,6.3-2.1,6.3-4.7v-4c0-1-1.1-1.6-2-1
			c-1.9,1.3-3.5,1.7-4.4,1.8v-15.1H-293.1z"/>
	</g>
</g>
<g id="XMLID_16_">
	<path id="XMLID_66_" class="st1" d="M-260.3,274.1c1.6,0,3.1,0.5,4.5,1.4v-11l2.6-0.2v29h-0.2c-0.8,0.3-2.2,0.6-4.1,0.8
		c-1.9,0.2-3.3,0.3-4,0.3c-2.2,0-4.1-0.6-5.5-1.7c-2-1.5-3.1-4.1-3.1-7.6s0.9-6.2,2.8-8.1C-265.5,275-263.1,274.1-260.3,274.1z
		 M-255.9,277.2c-1.3-0.5-2.6-0.8-3.9-0.8c-2.4,0-4.4,0.7-5.8,2.2s-2.1,3.6-2.1,6.3c0,2.7,0.8,4.7,2.3,5.8c1.1,0.8,2.5,1.3,4.1,1.3
		c1.7,0,3.4-0.1,5.4-0.4V277.2z"/>
	<path id="XMLID_63_" class="st1" d="M-249.2,276.4c2.9-1.4,5.4-2.2,7.6-2.3c1.7,0,3.1,0.2,4,0.7c0.9,0.4,1.7,1,2.3,1.8
		c0.6,0.8,0.9,1.9,0.9,3.3v14.3h-2.6v-1.5c-3.6,1.1-6,1.7-7,1.7c-0.1,0-0.1,0-0.1,0c-2.4,0-4-0.7-4.9-2.2c-0.3-0.5-0.5-1-0.5-1.6
		c0-0.5-0.1-0.9-0.1-1.3c0-1,0.4-1.8,1.1-2.6c0.7-0.8,1.6-1.3,2.7-1.5c1.8-0.5,4.7-0.8,8.8-1.2v-3.2c0-2.9-1.5-4.3-4.5-4.3
		c-2.1,0-4.4,0.6-6.9,1.9L-249.2,276.4z M-247.2,289.7c0,1.9,1.3,2.9,3.9,2.9c2.1,0,4.2-0.5,6.3-1.4v-5.7c-4.1,0.6-6.7,1-7.7,1.4
		C-246.4,287.4-247.2,288.3-247.2,289.7z"/>
	<path id="XMLID_32_" class="st1" d="M-227.8,276.5c2-1.5,3.9-2.2,5.7-2.3c1.6,0,2.9,0.2,3.7,0.6c0.9,0.4,1.6,1,2.2,1.7
		c0.6,0.7,0.9,1.8,0.9,3.1v14.7h-2.7v-14c0-1-0.2-1.7-0.6-2.3c-0.8-1-2.1-1.5-3.9-1.5c-1.7,0.1-3.4,0.6-5.3,1.6v16.1h-2.6v-19.9
		l2.6-0.2C-227.8,274.1-227.8,276.5-227.8,276.5z"/>
	<path id="XMLID_30_" class="st1" d="M-189.2,293.5c-0.5,0.5-1.3,0.7-2.6,0.7c-1.8,0-2.9-0.5-3.5-1.4c-1-1-1.6-2.3-1.6-4v-12.2h-2.2
		l0.4-2.3h1.9v-3.9l2.6-0.2v4.2h4.6v2.3h-4.6v12.8c0,1.5,0.8,2.3,2.4,2.3c0.7,0,1.4-0.2,2.2-0.5L-189.2,293.5z"/>
	<path id="XMLID_27_" class="st1" d="M-184.5,285c0,4.7,2.2,7,6.7,7c1.9,0,3.6-0.3,5.2-0.8c0.4-0.1,0.7-0.2,0.8-0.3l0.6,2.1
		c-0.9,0.6-2.6,1-5.1,1.2c-0.7,0.1-1.4,0.1-2.2,0.1c-2.2,0-4.1-0.6-5.6-1.7c-2-1.5-3.1-4-3.1-7.6c0-3.5,0.9-6.2,2.8-8.1
		c1.8-1.9,4.1-2.8,6.7-2.8c2.6,0,4.6,0.8,5.9,2.5c1,1.4,1.5,3.1,1.5,5.4c0,0.5,0,1.1-0.1,1.7h-14.2c0,0.2,0,0.4,0,0.7v0.6H-184.5z
		 M-177.4,276.6c-1.6,0-3.1,0.5-4.2,1.5c-1.2,1-2,2.3-2.4,3.8h11.6c-0.1-2.9-1.3-4.7-3.4-5.1C-176.4,276.7-176.9,276.6-177.4,276.6z
		"/>
	<path id="XMLID_24_" class="st1" d="M-154,277c-1.1-0.3-2.2-0.5-3.3-0.5c-2.3,0-4.2,0.7-5.6,2.2c-1.4,1.5-2.1,3.6-2.1,6.3
		c0,4.7,2.2,7.1,6.6,7.1c1.8,0,3.6-0.3,5.4-0.9c0.4-0.1,0.6-0.2,0.7-0.2l0.6,2.2c-0.9,0.6-2.6,1-5.1,1.2c-0.7,0.1-1.4,0.1-2.2,0.1
		c-2.3,0-4.1-0.6-5.6-1.7c-2-1.5-3.1-4.1-3.1-7.6s0.9-6.2,2.8-8.1c1.9-1.9,4.3-2.8,7.3-2.8c1,0,2,0.1,3,0.4c1.1,0.3,1.9,0.6,2.5,1.2
		v5.2l-2,0.3L-154,277z"/>
	<path id="XMLID_22_" class="st1" d="M-136.4,276.9c-1-0.3-2.3-0.5-3.9-0.5c-1.6,0-2.9,0.3-3.8,0.9c-0.9,0.6-1.4,1.3-1.4,2.2
		s0.3,1.5,0.8,1.9c0.5,0.4,1.2,0.7,2,1c0.8,0.3,1.7,0.6,2.6,0.8c0.9,0.3,1.8,0.6,2.6,1c1.9,1,2.8,2.4,2.8,4.3s-0.6,3.3-1.9,4.3
		c-1.3,1-3.2,1.5-5.6,1.5c-1.2,0-2.4-0.1-3.6-0.4c-1.2-0.3-2-0.6-2.6-1.1l0.9-2.1c0.6,0.5,1.8,0.9,3.7,1.2c0.6,0.1,1.2,0.1,1.8,0.1
		c1.4,0,2.5-0.3,3.5-0.9c0.9-0.6,1.4-1.4,1.4-2.6c0-0.8-0.3-1.4-0.8-1.9s-1.2-0.8-2-1.1s-1.7-0.6-2.6-0.8c-0.9-0.2-1.8-0.6-2.6-0.9
		c-0.8-0.4-1.5-0.9-2-1.5c-0.5-0.6-0.8-1.5-0.8-2.5c0-1.7,0.7-3.1,2-4.1s3.1-1.6,5.3-1.6c0.6,0,1.1,0,1.7,0.1
		c0.6,0.1,1.1,0.1,1.6,0.2l1.7,0.3L-136.4,276.9z"/>
	<path id="XMLID_19_" class="st1" d="M-131.4,289.1c-0.5-1.3-0.7-2.8-0.7-4.5c0-3.3,0.9-5.8,2.7-7.7s4.1-2.8,6.9-2.8
		c4.3,0,7.2,1.8,8.5,5.3c0.5,1.3,0.8,2.8,0.8,4.5c0,3.3-0.9,5.8-2.7,7.7s-4.1,2.8-6.9,2.8C-127.1,294.4-130,292.6-131.4,289.1z
		 M-129.5,284.4c0,2.4,0.6,4.3,1.9,5.7c1.3,1.3,2.9,2,4.9,2s3.7-0.7,5-2.1s2-3.4,2-5.8s-0.6-4.3-1.9-5.7c-1.2-1.3-2.9-2-4.9-2
		s-3.7,0.7-5,2.1S-129.5,281.9-129.5,284.4z"/>
	<path id="XMLID_17_" class="st1" d="M-107.4,276.5c2-1.5,3.9-2.2,5.7-2.3c1.6,0,2.9,0.2,3.7,0.6c0.9,0.4,1.6,1,2.2,1.7
		c0.6,0.7,0.9,1.8,0.9,3.1v14.7h-2.6v-14c0-1-0.2-1.7-0.6-2.3c-0.8-1-2.1-1.5-3.9-1.5c-1.7,0.1-3.4,0.6-5.3,1.6v16.1h-2.7v-19.9
		l2.6-0.2V276.5z"/>
</g>
<g id="XMLID_156_">
</g>
<g id="XMLID_157_">
</g>
<g id="XMLID_158_">
</g>
<g id="XMLID_176_">
</g>
<g id="XMLID_177_">
</g>
<g id="XMLID_178_">
</g>
<g id="XMLID_179_">
</g>
<g id="XMLID_180_">
</g>
<g id="XMLID_181_">
</g>
<g id="XMLID_182_">
</g>
<g id="XMLID_183_">
</g>
<g id="XMLID_184_">
</g>
<g id="XMLID_185_">
</g>
<g id="XMLID_186_">
</g>
<g id="XMLID_187_">
</g>
</svg>
