<?xml version="1.0" encoding="utf-8"?>
<!-- Generator: Adobe Illustrator 19.0.0, SVG Export Plug-In . SVG Version: 6.00 Build 0)  -->
<svg version="1.1" id="Layer_1" xmlns="http://www.w3.org/2000/svg" xmlns:xlink="http://www.w3.org/1999/xlink" x="0px" y="0px"
	 viewBox="0 0 160 200" enable-background="new 0 0 160 200" xml:space="preserve">
<g id="XMLID_25_">
	<path id="XMLID_62_" fill="#3E6170" stroke="#FAFBF4" stroke-width="10" stroke-miterlimit="10" d="M129.3,153.1H26.1
		c-11.2,0-20.2-9.1-20.2-20.2V29.7C5.9,18.5,15,9.5,26.1,9.5h103.2c11.2,0,20.2,9.1,20.2,20.2v103.2
		C149.5,144,140.5,153.1,129.3,153.1z"/>
	<g id="XMLID_57_">
		<path id="XMLID_59_" fill="#FAFBF4" d="M62,21.9v44.5h-1.9c-21.4,0-38.7,17.3-38.7,38.7v0c0,20.5,16.6,37.2,37.2,37.2H62h18.3h3.3
			V21.9H62z M63,123.1c0,0.6-0.5,1.1-1.1,1.1h-4.6c-9.9,0-18-8.1-18-18v0c0-10.7,8.7-19.4,19.4-19.4h3.2c0.6,0,1.1,0.5,1.1,1.1
			V123.1z"/>
		<path id="XMLID_58_" fill="#FAFBF4" d="M123.7,86.8c1.7,0,3-1.3,3-3V69.4c0-1.7-1.3-3-3-3h-12.2V54.8c0-1.7-1.3-3-3-3H92.9
			c-1.7,0-3,1.3-3,3v87.5h1.2h17.3h3c6.3,0,15.2-5.1,15.2-11.3v-9.7c0-2.4-2.7-3.8-4.7-2.5c-4.5,3-8.4,4-10.5,4.3V86.8H123.7z"/>
	</g>
	<g id="XMLID_34_">
		<path id="XMLID_54_" fill="#FAFBF4" d="M14.7,171c1.3,0,2.6,0.4,3.8,1.2v-9.3l2.2-0.2v24.7h-0.2c-0.7,0.3-1.9,0.5-3.5,0.7
			s-2.8,0.2-3.4,0.2c-1.9,0-3.5-0.5-4.7-1.4c-1.7-1.3-2.6-3.5-2.6-6.5c0-3,0.8-5.3,2.4-6.9C10.3,171.8,12.3,171,14.7,171z
			 M18.5,173.6c-1.1-0.4-2.2-0.6-3.3-0.6c-2.1,0-3.7,0.6-4.9,1.9c-1.2,1.3-1.8,3.1-1.8,5.4s0.6,4,1.9,4.9c0.9,0.7,2.1,1.1,3.5,1.1
			s2.9-0.1,4.6-0.3V173.6z"/>
		<path id="XMLID_51_" fill="#FAFBF4" d="M24.2,173c2.5-1.2,4.6-1.9,6.5-1.9c1.5,0,2.6,0.2,3.4,0.6c0.8,0.4,1.5,0.9,2,1.6
			c0.5,0.7,0.7,1.6,0.7,2.8v12.2h-2.2v-1.3c-3.1,1-5.1,1.4-6,1.4c0,0-0.1,0-0.1,0c-2,0-3.4-0.6-4.2-1.9c-0.3-0.5-0.4-0.9-0.5-1.3
			c0-0.4-0.1-0.8-0.1-1.1c0-0.8,0.3-1.5,1-2.2c0.6-0.6,1.4-1.1,2.3-1.3c1.5-0.4,4-0.7,7.5-1v-2.8c0-2.5-1.3-3.7-3.9-3.7
			c-1.8,0-3.8,0.5-5.9,1.6L24.2,173z M25.9,184.3c0,1.6,1.1,2.4,3.4,2.4c1.8,0,3.6-0.4,5.3-1.2v-4.9c-3.5,0.5-5.7,0.9-6.6,1.2
			C26.6,182.3,25.9,183.1,25.9,184.3z"/>
		<path id="XMLID_49_" fill="#FAFBF4" d="M42.4,173c1.7-1.2,3.3-1.9,4.8-2c1.4,0,2.4,0.2,3.2,0.5s1.4,0.8,1.9,1.4
			c0.5,0.6,0.7,1.5,0.7,2.6v12.5h-2.2v-11.9c0-0.8-0.2-1.5-0.5-1.9c-0.7-0.8-1.8-1.3-3.3-1.3c-1.4,0.1-2.9,0.5-4.5,1.4v13.7h-2.2
			v-17l2.2-0.2V173z"/>
		<path id="XMLID_47_" fill="#FAFBF4" d="M75.3,187.5c-0.4,0.4-1.1,0.6-2.2,0.6c-1.5,0-2.5-0.4-3-1.2c-0.9-0.8-1.3-2-1.3-3.4v-10.5
			h-1.9l0.3-2h1.6v-3.4l2.2-0.2v3.6h3.9v2H71v11c0,1.3,0.7,2,2,2c0.6,0,1.2-0.1,1.9-0.4L75.3,187.5z"/>
		<path id="XMLID_44_" fill="#FAFBF4" d="M79.4,180.3c0,4,1.9,6,5.7,6c1.6,0,3.1-0.2,4.4-0.6c0.3-0.1,0.6-0.2,0.7-0.3l0.5,1.8
			c-0.8,0.5-2.2,0.8-4.3,1c-0.6,0-1.2,0.1-1.9,0.1c-1.9,0-3.5-0.5-4.8-1.4c-1.7-1.3-2.6-3.4-2.6-6.5c0-3,0.8-5.3,2.4-6.9
			c1.6-1.6,3.5-2.4,5.7-2.4c2.2,0,3.9,0.7,5.1,2.2c0.9,1.2,1.3,2.7,1.3,4.6c0,0.5,0,0.9-0.1,1.4H79.4c0,0.2,0,0.4,0,0.6V180.3z
			 M85.4,173.1c-1.4,0-2.6,0.4-3.6,1.3c-1,0.8-1.7,1.9-2.1,3.3h9.9c-0.1-2.5-1.1-4-2.9-4.4C86.3,173.2,85.8,173.1,85.4,173.1z"/>
		<path id="XMLID_42_" fill="#FAFBF4" d="M105.4,173.4c-0.9-0.3-1.9-0.4-2.9-0.4c-2,0-3.5,0.6-4.7,1.9c-1.2,1.3-1.8,3.1-1.8,5.4
			c0,4,1.9,6,5.6,6c1.5,0,3-0.2,4.6-0.7c0.3-0.1,0.5-0.2,0.6-0.2l0.5,1.8c-0.8,0.5-2.2,0.8-4.3,1c-0.6,0-1.2,0.1-1.9,0.1
			c-1.9,0-3.5-0.5-4.8-1.4c-1.7-1.3-2.6-3.5-2.6-6.5c0-3,0.8-5.3,2.4-6.9c1.6-1.6,3.7-2.4,6.3-2.4c0.8,0,1.7,0.1,2.6,0.3
			c0.9,0.2,1.6,0.5,2.1,1v4.4l-1.7,0.2L105.4,173.4z"/>
		<path id="XMLID_40_" fill="#FAFBF4" d="M120.4,173.4c-0.8-0.3-1.9-0.4-3.3-0.4c-1.4,0-2.5,0.2-3.3,0.7s-1.2,1.1-1.2,1.9
			c0,0.7,0.2,1.3,0.7,1.6c0.5,0.3,1,0.6,1.7,0.9c0.7,0.2,1.4,0.5,2.2,0.7s1.5,0.5,2.2,0.9c1.6,0.8,2.4,2,2.4,3.6s-0.5,2.8-1.6,3.7
			c-1.1,0.9-2.7,1.3-4.8,1.3c-1.1,0-2.1-0.1-3.1-0.3c-1-0.2-1.7-0.5-2.3-0.9l0.7-1.8c0.5,0.5,1.6,0.8,3.2,1c0.5,0.1,1,0.1,1.5,0.1
			c1.2,0,2.2-0.2,3-0.7c0.8-0.5,1.2-1.2,1.2-2.2c0-0.7-0.2-1.2-0.7-1.6c-0.5-0.4-1-0.7-1.7-1c-0.7-0.3-1.4-0.5-2.2-0.7
			c-0.8-0.2-1.5-0.5-2.2-0.8c-0.7-0.3-1.2-0.8-1.7-1.3c-0.5-0.5-0.7-1.3-0.7-2.2c0-1.5,0.6-2.6,1.7-3.5s2.6-1.3,4.6-1.3
			c0.5,0,1,0,1.5,0.1s1,0.1,1.4,0.2l1.4,0.2L120.4,173.4z"/>
		<path id="XMLID_37_" fill="#FAFBF4" d="M124.6,183.8c-0.4-1.1-0.6-2.4-0.6-3.8c0-2.8,0.8-5,2.3-6.6c1.6-1.6,3.5-2.4,5.9-2.4
			c3.7,0,6.1,1.5,7.3,4.5c0.4,1.1,0.6,2.4,0.6,3.8c0,2.8-0.8,5-2.3,6.6c-1.6,1.6-3.5,2.4-5.9,2.4
			C128.3,188.3,125.8,186.8,124.6,183.8z M126.2,179.8c0,2.1,0.5,3.7,1.6,4.8c1.1,1.1,2.5,1.7,4.2,1.7s3.1-0.6,4.2-1.8
			s1.7-2.9,1.7-4.9s-0.5-3.7-1.6-4.8c-1.1-1.1-2.5-1.7-4.2-1.7c-1.7,0-3.1,0.6-4.3,1.8C126.8,176,126.2,177.7,126.2,179.8z"/>
		<path id="XMLID_35_" fill="#FAFBF4" d="M145.1,173c1.7-1.2,3.3-1.9,4.8-2c1.4,0,2.4,0.2,3.2,0.5s1.4,0.8,1.9,1.4
			c0.5,0.6,0.7,1.5,0.7,2.6v12.5h-2.2v-11.9c0-0.8-0.2-1.5-0.5-1.9c-0.7-0.8-1.8-1.3-3.3-1.3c-1.4,0.1-2.9,0.5-4.5,1.4v13.7h-2.2
			v-17l2.2-0.2V173z"/>
	</g>
</g>
<g id="XMLID_83_">
</g>
<g id="XMLID_84_">
</g>
<g id="XMLID_85_">
</g>
<g id="XMLID_86_">
</g>
<g id="XMLID_87_">
</g>
<g id="XMLID_88_">
</g>
<g id="XMLID_89_">
</g>
<g id="XMLID_90_">
</g>
<g id="XMLID_91_">
</g>
<g id="XMLID_92_">
</g>
<g id="XMLID_93_">
</g>
<g id="XMLID_94_">
</g>
<g id="XMLID_95_">
</g>
<g id="XMLID_96_">
</g>
<g id="XMLID_97_">
</g>
</svg>
